<?xml version="1.0" standalone="no"?><!DOCTYPE svg PUBLIC "-//W3C//DTD SVG 1.1//EN" "http://www.w3.org/Graphics/SVG/1.1/DTD/svg11.dtd">
<svg t="1727530532628" class="icon" viewBox="0 0 1024 1024" version="1.1" xmlns="http://www.w3.org/2000/svg" p-id="3257"
     width="200" height="200"><path d="M512.920863 945.840806c333.050475 0 452.900835-246.898187 452.900835-454.906475-109.527482-159.22095-218.447194-298.359712-452.900835-298.359712-234.455482 0-338.612489 129.222906-453.037122 298.359712 0 208.008288 119.986647 454.906475 453.037122 454.906475z" fill="#AEACAC" p-id="3258"></path><path d="M512.920863 188.891165c-111.623367 0-198.600748 28.828547-273.772662 86.515108-32.530417 24.962763-63.090187 55.417554-94.254043 93.075339l-1.766216 2.140086c-26.288806 31.972374-51.789353 67.246964-86.2941 118.248057a3.683453 3.683453 0 0 0-0.633554 2.062734c0 113.907108 34.897036 225.046101 102.455252 307.787511 78.99718 96.751424 197.935885 150.804259 354.265323 150.804259 156.327597 0 275.236835-54.050993 354.199022-150.806101 67.517698-82.732201 102.385266-193.860144 102.385266-307.783827a3.683453 3.683453 0 0 0-0.648288-2.088518l-6.359482-9.219684c-30.824978-44.55505-53.715799-75.632345-77.838734-104.827395-31.771626-38.455252-62.955741-69.788547-96.174964-95.659281-76.748432-59.764029-164.860317-90.248288-275.56282-90.248288z m0 7.366907c109.056 0 195.576633 29.933583 271.035856 88.69387 32.116029 25.010647 62.360863 55.259165 93.17295 92.307339l2.821525 3.407194 2.983597 3.641093c23.505957 28.815655 46.352576 60.119482 77.256749 104.941583l1.946705 2.823367v-1.138187c0 112.312173-34.348201 221.793612-100.725871 303.126101-77.534849 95.003626-194.333468 148.096921-348.491511 148.096921-154.159885 0-270.991655-53.095137-348.559654-148.096921l-1.981698-2.449497c-64.460432-80.262446-98.127194-187.316489-98.808633-297.309928v-2.243223l3.293007-4.856633c32.410705-47.726504 56.844892-81.363799 81.956834-111.901468 31.440115-38.237928 62.150906-68.985554 94.812087-94.049611 73.871655-56.688345 159.268835-84.992 269.288057-84.992z" fill="#000000" p-id="3259"></path><path d="M624.930993 202.595453c47.523914-56.323683 85.916547-94.983367 115.185266-115.97905 29.266878-20.995683 69.608058-38.818072 121.019856-53.465324 33.335252 55.141295 52.793094 108.280633 58.373525 159.42354 5.580432 51.141065 0.524892 129.987223-15.16846 236.536633L624.934676 202.595453z" fill="#FFFFFF" p-id="3260"></path><path d="M876.109353 24.098993c34.585784 57.209554 54.920288 112.741295 60.793553 166.576806 5.777496 52.955165 0.640921 133.083165-15.251338 240.984402-1.976173 13.413295-17.796604 19.581237-28.327597 11.042993L613.913784 216.187396c-7.610014-6.169784-8.672691-17.385899-2.353726-24.87436l4.328057-5.112633c46.398619-54.583252 84.251626-92.439942 114.028662-113.800288 31.095712-22.306993 73.219683-40.91764 126.425324-56.07505a17.496403 17.496403 0 0 1 19.767252 7.773928z m-23.122878 29.708892l-1.609669 0.497266c-42.667281 13.242014-76.365353 28.811971-101.062907 46.52754l-0.837985 0.604086c-24.951712 18.093122-57.565007 50.290187-97.475223 96.408863l-2.117986 2.45318 241.454043 195.74423 1.090302-8.221467c11.194014-85.702906 14.387568-150.284892 9.689324-193.349986-4.898993-44.901295-21.220374-91.784288-49.129899-140.663712z" fill="#000000" p-id="3261"></path><path d="M624.930993 202.595453c47.523914-56.323683 85.916547-94.983367 115.185266-115.97905 15.111367-10.840403 33.17318-20.833612 54.187281-29.983309 5.68541-2.473439 45.037583 42.065036 59.115741 135.941525 9.383597 62.581871 9.383597 121.205871 0 175.870158l-228.488288-165.849324z" fill="#EF7878" p-id="3262"></path><path d="M394.971165 202.595453c-47.522072-56.323683-85.916547-94.983367-115.183424-115.97905-29.268719-20.995683-69.608058-38.818072-121.019856-53.465324-18.371223 33.300259-30.701583 58.067799-36.991079 74.300777-5.33364 13.765065-19.791194 70.541813-21.382446 85.122763-5.580432 51.141065-0.524892 129.987223 15.166618 236.536633l279.410187-226.515799z" fill="#FFFFFF" p-id="3263"></path><path d="M143.446561 24.699396l-2.552633 4.644834C123.856115 60.445468 112.179568 84.012201 105.772201 100.333583l-0.30941 0.797467c-2.821525 7.278504-7.591597 23.984806-12.440863 43.089036l-1.399712 5.576749c-4.44777 17.92-7.694734 32.952173-8.573238 40.446158l-0.047884 0.432806c-5.779338 52.955165-0.640921 133.083165 15.249496 240.984402 1.976173 13.413295 17.798446 19.581237 28.329439 11.042993l279.408345-226.515798c7.611856-6.169784 8.674532-17.385899 2.355568-24.87436l-4.328057-5.112633c-46.398619-54.583252-84.251626-92.439942-114.030504-113.800288C258.891511 50.093122 216.765698 31.482475 163.563741 16.325065a17.496403 17.496403 0 0 0-20.115338 8.374331zM166.307914 55.865094l1.036892-1.924605 1.182388 0.364662c42.665439 13.242014 76.365353 28.811971 101.061065 46.52754l0.837986 0.604086c24.951712 18.093122 57.565007 50.290187 97.477064 96.408863l2.117986 2.45318L128.563568 396.04305l-1.08846-8.221467c-11.079827-84.818878-14.323108-148.951482-9.832979-192.011051l0.143655-1.338935c0.596719-5.480978 3.913669-20.736 8.324604-38.353957l1.313152-5.197352c4.250705-16.612374 8.448-31.281727 10.54941-36.8419l0.116028-0.303884c5.038964-13.006273 14.468604-32.383079 28.217094-57.90941z" fill="#000000" p-id="3264"></path><path d="M394.499683 202.595453C346.977612 146.269928 308.583137 107.612086 279.316259 86.616403c-15.111367-10.840403-33.17318-20.833612-54.187281-29.983309-5.68541-2.473439-45.039424 42.065036-59.115741 135.941525-9.383597 62.581871-9.383597 121.205871 0 175.870158l228.486446-165.849324z" fill="#EF7878" p-id="3265"></path><path d="M395.179281 202.595453C347.657209 146.269928 309.262734 107.612086 279.994014 86.616403c-29.265036-20.995683-69.606216-38.818072-121.019856-53.465324 19.675165 34.694446 32.985324 56.809899 39.934159 66.342676 3.646619 5.002129 23.122878 11.833094 58.43246 20.491051-16.676835 22.185439-22.406446 37.377842-17.190676 45.577208 17.50377 27.511712 33.558101 65.674129 48.161151 114.48541l106.868029-77.451971z" fill="#616161" p-id="3266"></path><path d="M143.755971 41.78141l4.477238 7.873381c6.692835 11.728115 12.58636 21.872345 17.698992 30.462159l3.550849 5.922992c6.562072 10.862504 11.639712 18.756144 15.286331 23.758274l0.224691 0.303885c5.797755 7.652374 18.63459 13.444604 42.759367 20.257151l1.558101 0.436489-0.294677 0.548835c-1.978014 3.670561-3.593209 7.164317-4.851108 10.497841-4.61905 12.24564-4.865842 23.54095 1.222907 33.110561 16.525813 25.973871 31.983424 62.718158 46.161036 110.109468 3.455079 11.543942 17.273554 16.22377 27.031021 9.15154l106.866187-77.451972c8.23436-5.967194 9.66354-17.676892 3.105152-25.448978l-4.328058-5.112633c-46.398619-54.583252-84.253468-92.439942-114.030504-113.800288-31.095712-22.306993-73.219683-40.91764-126.423482-56.07505-15.057957-4.291223-27.736403 11.838619-20.014043 25.456345zM197.007655 63.907914l0.677755 0.252316c29.252144 10.925122 53.294043 23.176288 72.110964 36.674302l0.837986 0.604087c24.951712 18.093122 57.565007 50.290187 97.477064 96.408863l1.464173 1.694389-71.877065 52.093237-0.158388-0.482532c-12.545842-37.668835-26.169094-68.431194-40.978417-92.35154l-0.690648-1.108719 0.005525-0.023943c0.147338-0.825094 0.473324-1.99459 1.031367-3.473496 2.184288-5.795914 6.991194-13.814791 14.42072-23.697497 7.541871-10.035568 2.372144-24.513381-9.821928-27.504345l-4.204662-1.042417c-14.660144-3.666878-26.189353-6.956201-34.493698-9.82377l-0.768-0.26705c-4.182561-1.466014-7.368748-2.775482-9.459108-3.845526l-0.598561-0.314935-1.123453-1.633611c-3.248806-4.781122-7.654216-11.809151-13.181238-21.036202l-0.670388-1.121611z" fill="#000000" p-id="3267"></path><path d="M624.930993 202.595453c47.523914-56.323683 85.916547-94.983367 115.185266-115.97905 29.266878-20.995683 69.608058-38.818072 121.019856-53.465324-35.123568 46.208921-61.438158 83.071079-78.941928 110.582792-17.50377 27.511712-41.687482 70.022446-72.55482 127.534043l-84.708374-68.672461z" fill="#616161" p-id="3268"></path><path d="M875.065094 43.739165l-6.593382 8.702159c-31.565353 41.794302-55.417554 75.385554-71.514244 100.683511l-2.482648 3.930244a905.256518 905.256518 0 0 0-7.983885 12.997065l-2.237698 3.720288-1.48259 2.486331c-15.453928 25.966504-34.705496 60.412317-57.714187 103.284028-5.193669 9.672748-17.907108 12.229065-26.434302 5.315223l-84.708374-68.670618c-7.610014-6.169784-8.672691-17.385899-2.353726-24.87436l4.328057-5.112633c46.398619-54.583252 84.251626-92.439942 114.028662-113.800288 31.095712-22.306993 73.219683-40.91764 126.425324-56.07505 16.172201-4.608 28.898532 14.02659 18.722993 27.4141z m-66.808634 31.204375l5.379684-7.400058-0.182331 0.073669c-25.231655 10.031885-46.28259 21.124604-63.139914 33.21554l-0.837985 0.604086c-24.951712 18.093122-57.565007 50.290187-97.475223 96.408863l-2.117986 2.451338 54.380662 44.087252 4.812432-8.85318c23.749065-43.549468 42.978532-76.932604 57.743654-100.224921l2.176921-3.410877c10.308144-16.054331 23.389928-35.02964 39.260086-56.951712z" fill="#000000" p-id="3269"></path><path d="M512.920863 889.574216c333.050475 0 452.900835-190.631597 452.900835-398.641727-109.527482-159.217266-218.447194-298.359712-452.900835-298.359712-234.455482 0-338.612489 129.224748-453.037122 298.359712 0 208.010129 119.986647 398.641727 453.037122 398.641727z" fill="#8B8B8B" p-id="3270"></path><path d="M215.482014 803.106993a296.517986 135.366906 0 1 0 593.035972 0 296.517986 135.366906 0 1 0-593.035972 0Z" fill="#FFFFFF" p-id="3271"></path><path d="M81.052547 657.671367c19.958791-18.612489 37.703827-33.051626 53.233266-43.321094 13.63246-9.015252 32.257842-20.246101 55.876144-33.690705l0.003683 0.007367a3.683453 3.683453 0 0 0-1.484431-6.86964C157.17295 570.935252 133.202878 570.183827 116.765468 571.54118c-18.398849 1.519424-37.368633 7.236144-56.901986 17.150158l21.187223 68.980029zM129.355511 751.639942c11.81836-19.41364 22.704806-34.900719 32.664863-46.466762 8.556662-9.934273 20.369496-22.557468 35.440345-37.865899h0.001842a3.683453 3.683453 0 0 0-3.149352-6.232403c-23.629353 3.462446-41.427799 7.261928-53.399022 11.398446-13.731914 4.746129-27.134158 13.127827-40.204892 25.146935l28.646216 54.017842zM944.159309 657.671367c-19.960633-18.612489-37.705669-33.051626-53.235108-43.321094-13.630619-9.015252-32.256-20.246101-55.874302-33.690705l-0.005525 0.007367a3.683453 3.683453 0 0 1 1.486273-6.86964c31.506417-2.862043 55.476489-3.613468 71.912058-2.256115 18.400691 1.519424 37.368633 7.236144 56.901986 17.150158l-21.185382 68.980029zM895.856345 751.639942c-11.81836-19.41364-22.706647-34.900719-32.664863-46.466762-8.556662-9.934273-20.369496-22.557468-35.442187-37.865899a3.683453 3.683453 0 0 1 3.149352-6.232403c23.629353 3.462446 41.427799 7.261928 53.39718 11.398446 13.731914 4.746129 27.134158 13.127827 40.204892 25.146935l-28.644374 54.017842zM265.208633 262.96541c21.504 16.803914 38.543655 32.069986 51.115281 45.803741 11.035626 12.052259 25.041957 28.692259 42.017151 49.916317l-0.007367 0.005525a3.683453 3.683453 0 0 0 6.552863-2.541583c-2.10141-31.567194-5.10895-55.362302-9.020777-71.38164-4.379626-17.936576-12.993381-35.77554-25.841266-53.516892L265.208633 262.96541zM759.730647 262.96541c-21.504 16.803914-38.541813 32.069986-51.11528 45.803741-11.035626 12.052259-25.041957 28.692259-42.015309 49.916317l0.005525 0.005525a3.683453 3.683453 0 0 1-6.552864-2.541583c2.103252-31.567194 5.10895-55.362302 9.020777-71.38164 4.379626-17.936576 12.993381-35.77554 25.843108-53.516892l64.814043 31.714532zM381.23741 217.518964c22.419338 24.802532 38.576806 49.083856 48.474245 72.845813 7.996777 19.2 17.575597 46.166561 28.738302 80.899683h-0.001842a5.52518 5.52518 0 0 0 10.761209-1.167654c3.834475-41.343079 6.825439-74.554935 8.974734-99.63741 2.60236-30.371914 2.60236-56.332892 0-77.886619L381.23741 217.520806zM644.049957 217.518964c-22.419338 24.802532-38.576806 49.083856-48.474245 72.845813-7.996777 19.2-17.575597 46.166561-28.738302 80.899683h0.001842a5.52518 5.52518 0 0 1-10.761209-1.167654c-3.834475-41.343079-6.825439-74.554935-8.974734-99.63741-2.60236-30.371914-2.60236-56.332892 0-77.886619l96.946648 24.946187z" fill="#616161" p-id="3272"></path><path d="M215.680921 576.097612a13.81295 13.81295 0 0 1 15.93646-11.297152l67.906302 11.567885a13.81295 13.81295 0 1 1-4.639309 27.233612l-67.90446-11.566043a13.81295 13.81295 0 0 1-11.298993-15.938302zM294.318964 646.427626a13.81295 13.81295 0 0 1 5.77013 27.018129l-67.904461 14.503598a13.81295 13.81295 0 0 1-5.771971-27.016288l67.90446-14.505439zM808.087022 576.097612a13.81295 13.81295 0 0 0-15.936461-11.297152l-67.90446 11.567885a13.81295 13.81295 0 1 0 4.637467 27.233612l67.906303-11.566043a13.81295 13.81295 0 0 0 11.297151-15.938302zM729.448978 646.427626a13.81295 13.81295 0 0 0-5.770129 27.018129l67.90446 14.503598a13.81295 13.81295 0 0 0 5.771972-27.016288l-67.904461-14.505439z" fill="#202020" p-id="3273"></path><path d="M512 799.861871c67.130935 0 121.553957-40.816345 121.553957-91.165468-31.364604-24.487597-76.733698-0.72564-123.373583-63.057036-40.983942 64.445698-0.322302 43.665496-119.734331 63.057036 0 50.349122 54.423022 91.165468 121.553957 91.165468z" fill="#EA3131" p-id="3274"></path><path d="M434.647482 772.718504a77.352518 34.992806 0 1 0 154.705036 0 77.352518 34.992806 0 1 0-154.705036 0Z" fill="#EF7878" p-id="3275"></path><path d="M633.553957 697.207712a12.892086 12.892086 0 0 1 12.892086 12.892087c0 58.406676-60.869065 104.057554-134.446043 104.057554s-134.446043-45.650878-134.446043-104.057554a12.892086 12.892086 0 0 1 25.784172 0c0 42.291568 47.976978 78.273381 108.661871 78.273381 60.078964 0 107.700489-35.267223 108.647137-77.008115l0.014734-1.265266a12.892086 12.892086 0 0 1 12.892086-12.892087z" fill="#202020" p-id="3276"></path><path d="M512.419914 632.756489a13.818475 13.818475 0 0 1 13.842417 10.212374l0.156547 0.556202c4.827165 16.304806 28.97036 33.569151 56.386302 41.729841 14.779856 4.399885 40.632173 2.333468 76.700547-6.862273a13.81295 13.81295 0 0 1 6.825438 26.769496c-40.503252 10.326561-70.685468 12.739223-91.406733 6.571281-25.157986-7.48846-48.302964-20.968058-62.513727-37.950619-14.212604 16.982561-37.355741 30.462158-62.513727 37.950619-20.721266 6.167942-50.903482 3.757122-91.406733-6.571281a13.81295 13.81295 0 1 1 6.825438-26.769496c36.066532 9.195741 61.918849 11.262158 76.700547 6.862273 27.415942-8.158849 51.557295-25.425036 56.386302-41.729841l0.156547-0.556202a13.818475 13.818475 0 0 1 13.840576-10.212374z" fill="#202020" p-id="3277"></path><path d="M514.035108 651.008c44.24564 0 79.000863-33.08846 79.000863-60.552288 0-27.463827-34.753381-38.744403-79.000863-38.744403-44.247482 0-81.229353 11.280576-81.229353 38.744403 0 27.463827 36.981871 60.552288 81.229353 60.552288z" fill="#EF7878" p-id="3278"></path><path d="M514.035108 551.711309c44.24564 0 79.000863 11.280576 79.000863 38.744403 0 27.463827-34.753381 60.552288-79.000863 60.552288-44.247482 0-81.229353-33.08846-81.229353-60.552288 0-27.18941 36.24518-38.517871 79.90331-38.742561l1.326043-0.001842z m0 25.784173c-19.923799 0-36.569324 2.552633-47.15741 7.035396-3.886043 1.64282-6.427626 3.318791-7.707626 4.701928l-0.20259 0.228374c-0.373871 0.442014-0.377554 0.451223-0.377554 0.994532 0 4.71482 4.941353 12.99154 14.247597 20.363971 11.337669 8.980259 26.21882 14.402302 41.197583 14.402303 14.800115 0 29.003511-5.289439 39.705784-14.098418 8.81082-7.252719 13.510906-15.540489 13.510907-20.667856 0-1.804892-1.193439-3.293007-7.503195-6.068489-9.750101-4.28754-25.296115-6.784921-44.45928-6.888058l-1.254216-0.003683z" fill="#202020" p-id="3279"></path><path d="M512.920863 175.078216c-114.629065 0-204.569784 29.810187-282.181985 89.369784-33.419971 25.646043-64.698014 56.817266-96.480691 95.217266l-1.799367 2.182446c-26.618475 32.373871-52.341871 67.954187-87.065784 119.281266a17.496403 17.496403 0 0 0-3.005698 9.805353c0 116.925698 35.867626 231.155108 105.56777 316.520978 81.676892 100.03154 204.567942 155.881899 364.965755 155.8819 160.395971 0 283.259396-55.85036 364.901295-155.883741 69.659626-85.358504 105.495942-199.576863 105.495943-316.519137a17.496403 17.496403 0 0 0-3.081209-9.917698l-3.917352-5.683568c-31.432748-45.540374-54.695597-77.291741-79.034015-106.932489l-1.978014-2.39977c-32.373871-39.184576-64.252317-71.215885-98.338993-97.758849-79.162935-61.646273-170.260259-93.163741-284.047655-93.163741z m0 34.992806c105.971108 0 189.508144 28.902216 262.54918 85.780259 31.89318 24.837525 62.010935 55.097094 92.859856 92.436259l0.961382 1.163971c23.275741 28.261295 45.619568 58.625842 75.639712 102.013237l3.364834 4.869525-0.01105 1.152921c-1.307626 106.985899-34.62446 210.704576-97.574676 287.83977-74.855137 91.721669-187.699568 143.017439-337.789238 143.017439-150.093353 0-262.969094-51.297612-337.859223-143.019281l-1.919079-2.370302c-61.745727-76.892086-94.425324-179.592288-95.721899-285.467626l-0.012892-1.224748 1.243165-1.830676c69.36495-102.03718 115.877755-158.088288 173.391194-202.223425 71.429525-54.813468 153.86705-82.137324 260.878734-82.137323z" fill="#000000" p-id="3280"></path><path d="M770.707338 761.285065c22.341986 3.939453 40.13859 16.700777 45.223597 46.461237 21.912863 11.739165 32.87482 52.958849 24.789641 98.816-4.552748 25.817324-24.318158 115.373122-138.752 96.91718-114.435683-18.455942-100.427511-108.647137-95.703482-135.438734 16.573698-93.992518 61.336863-89.682878 62.290877-89.351367 15.444719-24.785957 34.125353-29.399482 53.671597-25.953611 8.247252 1.454964 15.557065 5.922993 21.704749 12.750273 8.632173-4.199137 17.741353-5.794072 26.775021-4.200978z" fill="#616161" p-id="3281"></path><path d="M773.746187 744.053871l-1.024-0.171281c-8.192-1.292892-16.455827-0.784576-24.52259 1.38682l-0.418072 0.116029-0.526734-0.39413c-6.621007-4.832691-14.010014-8.077813-21.990215-9.484892l-0.872979-0.151021c-25.890993-4.304115-48.026705 3.677928-65.117928 26.00518l-0.281784 0.370187-0.460432 0.090244c-8.319079 1.652029-17.724777 5.783022-26.146993 12.472173-20.358446 16.172201-35.399827 45.623252-43.350561 90.708719-2.081151 11.801784-3.223022 21.264576-3.394302 32.642763-0.250475 16.47977 1.944863 32.292835 7.341122 47.197928 14.356259 39.652374 49.021237 66.688921 106.201324 75.910446 56.970129 9.188374 99.084892-5.315223 126.697899-37.797755 18.380432-21.621871 27.224403-45.870043 32.071828-73.355972l0.26705-1.556259c7.853122-46.693295-1.823309-90.804489-26.255655-110.54964l-0.392287-0.307568-0.119713-0.486216c-7.74446-29.964892-28.270504-47.45577-57.704978-52.645755z m-6.077698 34.462388c17.883165 3.151194 27.620374 12.302734 31.014676 32.176806a17.496403 17.496403 0 0 0 8.481152 12.195913l0.504633 0.279943c13.941871 7.468201 22.653237 41.600921 15.820431 80.354532-3.860259 21.901813-10.798043 40.919482-24.270273 56.76754-19.494676 22.931338-49.306705 33.198964-94.465842 25.914935-45.00259-7.256403-68.978187-25.957295-78.870101-53.277468-6.738878-18.608806-6.586014-37.361266-2.620777-60.508086l0.2339-1.340777c6.574964-37.296806 17.71741-59.108374 30.653698-69.38705 3.764489-2.990964 7.265612-4.626417 10.389179-5.318907l0.381238-0.079194c0.61882-0.123396 1.147396-0.189698 1.567309-0.215482l0.103137-0.005525 0.211798 0.025784a17.500086 17.500086 0 0 0 16.601324-8.157007c10.208691-16.380317 20.402647-20.688115 35.784748-17.975252 3.869468 0.681439 7.613698 2.830734 11.227166 6.66705l0.515683 0.559885a17.496403 17.496403 0 0 0 20.152173 4.261756l0.502791-0.235741c5.613583-2.731281 10.998791-3.600576 16.083799-2.703655z" fill="#000000" p-id="3282"></path><path d="M636.482903 845.150559a17.496403 19.338129 10 1 0 34.461187 6.076436 17.496403 19.338129 10 1 0-34.461187-6.076436Z" fill="#8B8B8B" p-id="3283"></path><path d="M657.711885 825.517122c-11.604719-2.046158-22.662446 6.54918-24.855943 18.993727-2.195338 12.444547 5.254446 24.303424 16.861008 26.349583 11.602878 2.046158 22.660604-6.54918 24.8541-18.993727 2.195338-12.444547-5.254446-24.303424-16.859165-26.349583z m-1.28 7.256403c7.427683 1.307626 12.400345 9.223367 10.884604 17.81318-1.513899 8.591655-8.893698 14.328633-16.321381 13.019166-7.427683-1.309468-12.398504-9.225209-10.884604-17.815022 1.515741-8.591655 8.89554-14.328633 16.321381-13.019166z" fill="#000000" p-id="3284"></path><path d="M679.954629 810.737027a20.258993 22.100719 10 1 0 39.902426 7.035874 20.258993 22.100719 10 1 0-39.902426-7.035874Z" fill="#8B8B8B" p-id="3285"></path><path d="M704.383079 788.863079c-13.096518-2.309525-25.596317 7.278504-28.056863 21.235108-2.460547 13.956604 6.004029 27.239137 19.102388 29.550504 13.094676 2.307683 25.594475-7.278504 28.055022-21.235108 2.460547-13.956604-6.004029-27.240978-19.100547-29.550504z m-1.28 7.256403c8.941583 1.574676 14.903252 10.930647 13.125986 21.014101-1.779108 10.083453-10.580719 16.835223-19.522302 15.258705-8.941583-1.576518-14.903252-10.930647-13.125986-21.014101 1.779108-10.085295 10.580719-16.837065 19.522302-15.260547z" fill="#000000" p-id="3286"></path><path d="M744.235315 817.396386a19.338129 23.021583 10 1 0 38.08868 6.716062 19.338129 23.021583 10 1 0-38.08868-6.716062Z" fill="#8B8B8B" p-id="3287"></path><path d="M767.917122 794.454561c-12.676604-2.234014-24.771223 7.904691-27.309122 22.30331-2.539741 14.396777 5.359424 28.060547 18.034187 30.296402 12.674763 2.234014 24.771223-7.904691 27.309122-22.303309 2.537899-14.396777-5.359424-28.060547-18.034187-30.296403z m-1.28 7.256403c8.361439 1.473381 13.936345 11.118504 12.057784 21.761842-1.876719 10.64518-10.413122 17.800288-18.774561 16.326906-8.361439-1.473381-13.934504-11.118504-12.057784-21.763683 1.876719-10.64518 10.413122-17.800288 18.774561-16.325065z" fill="#000000" p-id="3288"></path><path d="M787.023761 871.694744a15.654676 19.338129 10 1 0 30.833693 5.436812 15.654676 19.338129 10 1 0-30.833693-5.436812Z" fill="#8B8B8B" p-id="3289"></path><path d="M806.438676 851.741468c-10.705957-1.88777-20.861237 6.941468-23.041841 19.314187-2.182446 12.372719 4.339108 24.141353 15.046906 26.029122 10.705957 1.88777 20.859396-6.941468 23.04-19.314187 2.182446-12.370878-4.339108-24.141353-15.045065-26.029122z m-1.28 7.256403c6.322647 1.114245 10.599137 8.831079 9.072346 17.494561-1.528633 8.663482-8.186475 14.452029-14.509123 13.337784-6.320806-1.114245-10.597295-8.832921-9.070503-17.496403 1.528633-8.663482 8.186475-14.452029 14.50728-13.337784z" fill="#000000" p-id="3290"></path><path d="M769.826993 906.595453c-17.048863-15.024806-22.907396-27.640633-22.907396-27.640633-2.96518-7.516086-8.832921-12.919712-8.832921-12.919712-16.814964-10.613871-30.638964 3.337209-30.638964 3.337209-7.864173 7.355856-24.634935 15.105842-24.634935 15.105841-13.271482 5.088691-14.930878 15.940144-14.930878 15.940144-2.832576 21.791309 14.840633 24.688345 14.840633 24.688345 9.195741 2.274532 20.494734 1.208173 20.494734 1.208173 7.737094-2.348201 23.489381 2.832576 23.489381 2.832576 2.618935 0.898763 20.673381 7.35954 20.673382 7.359539 11.908604 4.064691 21.780259-7.521612 21.780259-7.521611 8.890014-14.601209 0.666705-22.389871 0.666705-22.389871z" fill="#8B8B8B" p-id="3291"></path><path d="M711.819971 861.80282l-0.635395 0.344403c-2.703655 1.499165-4.755338 3.088576-6.064806 4.348317l-0.189698 0.187856a41.05577 41.05577 0 0 1-3.856576 3.130935 87.450705 87.450705 0 0 1-6.427625 4.206504 153.773122 153.773122 0 0 1-9.24731 5.08869l-1.274475 0.642763c-0.616978 0.305727-1.198964 0.591194-1.744115 0.854561l-1.027683 0.488057 0.141813-0.055251c-6.134791 2.351885-10.626763 6.004029-13.660087 10.461007-1.996432 2.933871-3.077525 5.746187-3.53059 8.011511l-0.046043 0.239424-0.029467 0.19154c-1.357353 10.449957 1.418129 18.225727 7.147741 23.378877a23.168921 23.168921 0 0 0 6.740719 4.204662l0.502791 0.20259c1.326043 0.508317 2.480806 0.823252 3.381411 0.989007l-0.163914-0.036834c6.225036 1.541525 13.324892 1.814101 19.724892 1.443914l2.001957-0.141813a3.683453 3.683453 0 0 0 0.486216-0.079195l0.237582-0.06446c1.909871-0.580144 4.981871-0.596719 8.772144-0.081036 3.037007 0.414388 6.287655 1.125295 9.451741 1.989065l1.186072 0.333352 0.546993 0.16023 1.313151 0.40518 6.700202 2.372144 13.881093 4.956086c6.790446 2.318734 13.383827 0.804835 19.40259-3.116201 2.954129-1.926446 5.142101-3.981813 6.422101-5.486504a3.683453 3.683453 0 0 0 0.342561-0.471482c5.31154-8.722417 5.819856-16.409784 3.016748-22.575884-0.948489-2.084835-2.05905-3.547165-2.963338-4.405411-7.341122-6.471827-13.046791-12.855252-17.382216-18.920057a69.447827 69.447827 0 0 1-3.683453-5.676202l-0.176806-0.311251a32.204432 32.204432 0 0 1-0.734849-1.357353l-0.097611-0.20259 0.060777 0.151022a36.76823 36.76823 0 0 0-3.186187-6.191885 45.637986 45.637986 0 0 0-4.401727-5.825381l-0.598561-0.66118c-0.663022-0.718273-1.206331-1.257899-1.576518-1.598619a3.683453 3.683453 0 0 0-0.528576-0.40518c-9.735367-6.145842-19.489151-5.736978-28.233669-1.117928z m23.726964 6.993036l0.289151 0.180489 0.320461 0.322302a38.339223 38.339223 0 0 1 4.784806 6.061123c0.858245 1.353669 1.602302 2.729439 2.206388 4.114417l0.430964 1.031367 0.276259 0.570935c0.909813 1.823309 2.578417 4.637468 5.127367 8.204892 4.654043 6.514187 10.735424 13.315683 18.408057 20.076662l0.125238 0.139971c0.233899 0.290993 0.675914 0.939281 1.101352 1.87672l0.156547 0.360978c1.556259 3.758964 1.193439 8.569554-2.401611 14.733813l-0.197065 0.329669-0.329669 0.344403a26.237237 26.237237 0 0 1-4.328058 3.54164c-4.125468 2.688921-8.324604 3.720288-12.451913 2.493698l-0.556202-0.178647-17.81318-6.353957-2.792057-0.983482-0.996374-0.313094c-0.733007-0.222849-1.556259-0.460432-2.455022-0.707223-3.451396-0.942964-7.000403-1.720173-10.398388-2.182446l-0.830619-0.10682c-4.116259-0.50095-7.643165-0.46964-10.512576 0.278101l-0.154705 0.044201-0.338877 0.023943c-5.978245 0.427281-12.925237 0.239424-18.610648-1.169497l-0.294676-0.060777c-1.900662-0.35177-4.604317-1.458647-7.009612-3.624518l-0.349928-0.324143c-3.550849-3.403511-5.32259-8.466417-4.506705-15.901468l0.077353-0.640921 0.014734-0.079194c0.261525-1.303942 0.994532-3.204604 2.386877-5.252605 2.204547-3.241439 5.506763-5.926676 10.206849-7.727884l0.226533-0.09577 1.222906-0.580144 1.825151-0.895079c0.429122-0.215482 0.87482-0.438331 1.33341-0.67223a160.983482 160.983482 0 0 0 9.693007-5.335482 94.626072 94.626072 0 0 0 6.974619-4.567482 50.702734 50.702734 0 0 0 3.98918-3.189871l0.977957-0.907971c0.232058-0.206273 0.556201-0.482532 0.968748-0.81036a25.80259 25.80259 0 0 1 3.919194-2.547108c6.407367-3.385094 13.201496-3.751597 20.284777 0.478849z" fill="#000000" p-id="3292"></path><path d="M253.292662 761.285065c-22.341986 3.939453-40.13859 16.700777-45.223597 46.461237-21.912863 11.739165-32.87482 52.958849-24.789641 98.816 4.552748 25.817324 24.318158 115.373122 138.752 96.91718 114.435683-18.455942 100.427511-108.647137 95.703482-135.438734-16.573698-93.992518-61.336863-89.682878-62.290877-89.351367-15.444719-24.785957-34.125353-29.399482-53.671597-25.953611-8.247252 1.454964-15.557065 5.922993-21.704749 12.750273-8.632173-4.199137-17.741353-5.794072-26.775021-4.200978z" fill="#616161" p-id="3293"></path><path d="M250.253813 744.053871l1.024-0.171281c8.192-1.292892 16.455827-0.784576 24.52259 1.38682l0.418072 0.116029 0.526734-0.39413c6.621007-4.832691 14.010014-8.077813 21.990215-9.484892l0.872979-0.151021c25.890993-4.304115 48.026705 3.677928 65.117928 26.00518l0.281784 0.370187 0.460432 0.090244c8.319079 1.652029 17.724777 5.783022 26.146993 12.472173 20.358446 16.172201 35.399827 45.623252 43.350561 90.708719 2.081151 11.801784 3.223022 21.264576 3.394302 32.642763 0.250475 16.47977-1.944863 32.292835-7.341122 47.197928-14.356259 39.652374-49.021237 66.688921-106.201324 75.910446-56.970129 9.188374-99.084892-5.315223-126.697899-37.797755-18.380432-21.621871-27.224403-45.870043-32.071828-73.355972l-0.26705-1.556259c-7.853122-46.693295 1.823309-90.804489 26.255655-110.54964l0.392287-0.307568 0.119713-0.486216c7.74446-29.964892 28.270504-47.45577 57.704978-52.645755z m6.077698 34.462388c-17.883165 3.151194-27.620374 12.302734-31.014676 32.176806a17.496403 17.496403 0 0 1-8.481152 12.195913l-0.504633 0.279943c-13.941871 7.468201-22.653237 41.600921-15.820431 80.354532 3.860259 21.901813 10.798043 40.919482 24.270273 56.76754 19.494676 22.931338 49.306705 33.198964 94.465842 25.914935 45.00259-7.256403 68.978187-25.957295 78.870101-53.277468 6.738878-18.608806 6.586014-37.361266 2.620777-60.508086l-0.2339-1.340777c-6.574964-37.296806-17.71741-59.108374-30.653698-69.38705-3.764489-2.990964-7.265612-4.626417-10.389179-5.318907l-0.381238-0.079194a12.006216 12.006216 0 0 0-1.567309-0.215482l-0.103137-0.005525-0.211798 0.025784a17.500086 17.500086 0 0 1-16.601324-8.157007c-10.208691-16.380317-20.402647-20.688115-35.784748-17.975252-3.869468 0.681439-7.613698 2.830734-11.227166 6.66705l-0.515683 0.559885a17.496403 17.496403 0 0 1-20.152173 4.261756l-0.502791-0.235741c-5.613583-2.731281-10.998791-3.600576-16.083799-2.703655z" fill="#000000" p-id="3294"></path><path d="M387.516542 845.150607a19.338129 17.496403 80 1 1-34.461187 6.076437 19.338129 17.496403 80 1 1 34.461187-6.076437Z" fill="#8B8B8B" p-id="3295"></path><path d="M366.288115 825.517122c11.604719-2.046158 22.662446 6.54918 24.855943 18.993727 2.195338 12.444547-5.254446 24.303424-16.861008 26.349583-11.602878 2.046158-22.660604-6.54918-24.8541-18.993727-2.195338-12.444547 5.254446-24.303424 16.859165-26.349583z m1.28 7.256403c-7.427683 1.307626-12.400345 9.223367-10.884604 17.81318 1.513899 8.591655 8.893698 14.328633 16.321381 13.019166 7.427683-1.309468 12.398504-9.225209 10.884604-17.815022-1.515741-8.591655-8.89554-14.328633-16.321381-13.019166z" fill="#000000" p-id="3296"></path><path d="M344.046781 810.736904a22.100719 20.258993 80 1 1-39.902427 7.035874 22.100719 20.258993 80 1 1 39.902427-7.035874Z" fill="#8B8B8B" p-id="3297"></path><path d="M319.616921 788.863079c13.096518-2.309525 25.596317 7.278504 28.056863 21.235108 2.460547 13.956604-6.004029 27.239137-19.102388 29.550504-13.094676 2.307683-25.594475-7.278504-28.055022-21.235108-2.460547-13.956604 6.004029-27.240978 19.100547-29.550504z m1.28 7.256403c-8.941583 1.574676-14.903252 10.930647-13.125986 21.014101 1.779108 10.083453 10.580719 16.835223 19.522302 15.258705 8.941583-1.576518 14.903252-10.930647 13.125986-21.014101-1.779108-10.085295-10.580719-16.837065-19.522302-15.260547z" fill="#000000" p-id="3298"></path><path d="M279.766126 817.39626a23.021583 19.338129 80 1 1-38.08868 6.716062 23.021583 19.338129 80 1 1 38.08868-6.716062Z" fill="#8B8B8B" p-id="3299"></path><path d="M256.082878 794.454561c12.676604-2.234014 24.771223 7.904691 27.309122 22.30331 2.539741 14.396777-5.359424 28.060547-18.034187 30.296402-12.674763 2.234014-24.771223-7.904691-27.309122-22.303309-2.537899-14.396777 5.359424-28.060547 18.034187-30.296403z m1.28 7.256403c-8.361439 1.473381-13.936345 11.118504-12.057784 21.761842 1.876719 10.64518 10.413122 17.800288 18.774561 16.326906 8.361439-1.473381 13.934504-11.118504 12.057784-21.763683-1.876719-10.64518-10.413122-17.800288-18.774561-16.325065z" fill="#000000" p-id="3300"></path><path d="M236.974866 871.694864a19.338129 15.654676 80 1 1-30.833693 5.436812 19.338129 15.654676 80 1 1 30.833693-5.436812Z" fill="#8B8B8B" p-id="3301"></path><path d="M217.561324 851.741468c10.705957-1.88777 20.861237 6.941468 23.041841 19.314187 2.182446 12.372719-4.339108 24.141353-15.046906 26.029122-10.705957 1.88777-20.859396-6.941468-23.04-19.314187-2.182446-12.370878 4.339108-24.141353 15.045065-26.029122z m1.28 7.256403c-6.322647 1.114245-10.599137 8.831079-9.072346 17.494561 1.528633 8.663482 8.186475 14.452029 14.509123 13.337784 6.320806-1.114245 10.597295-8.832921 9.070503-17.496403-1.528633-8.663482-8.186475-14.452029-14.50728-13.337784z" fill="#000000" p-id="3302"></path><path d="M254.173007 906.595453c17.048863-15.024806 22.907396-27.640633 22.907396-27.640633 2.96518-7.516086 8.832921-12.919712 8.832921-12.919712 16.814964-10.613871 30.638964 3.337209 30.638964 3.337209 7.864173 7.355856 24.634935 15.105842 24.634935 15.105841 13.271482 5.088691 14.930878 15.940144 14.930878 15.940144 2.832576 21.791309-14.840633 24.688345-14.840633 24.688345-9.195741 2.274532-20.494734 1.208173-20.494734 1.208173-7.737094-2.348201-23.489381 2.832576-23.489381 2.832576-2.618935 0.898763-20.673381 7.35954-20.673382 7.359539-11.908604 4.064691-21.780259-7.521612-21.780259-7.521611-8.890014-14.601209-0.666705-22.389871-0.666705-22.389871z" fill="#8B8B8B" p-id="3303"></path><path d="M312.180029 861.80282l0.635395 0.344403c2.703655 1.499165 4.755338 3.088576 6.064806 4.348317l0.189698 0.187856a41.05577 41.05577 0 0 0 3.856576 3.130935 87.450705 87.450705 0 0 0 6.427625 4.206504 153.773122 153.773122 0 0 0 9.24731 5.08869l1.274475 0.642763c0.616978 0.305727 1.198964 0.591194 1.744115 0.854561l1.027683 0.488057-0.141813-0.055251c6.134791 2.351885 10.626763 6.004029 13.660087 10.461007 1.996432 2.933871 3.077525 5.746187 3.53059 8.011511l0.046043 0.239424 0.029467 0.19154c1.357353 10.449957-1.418129 18.225727-7.147741 23.378877a23.168921 23.168921 0 0 1-6.740719 4.204662l-0.502791 0.20259c-1.326043 0.508317-2.480806 0.823252-3.381411 0.989007l0.163914-0.036834c-6.225036 1.541525-13.324892 1.814101-19.724892 1.443914l-2.001957-0.141813a3.683453 3.683453 0 0 1-0.486216-0.079195l-0.237582-0.06446c-1.909871-0.580144-4.981871-0.596719-8.772144-0.081036-3.037007 0.414388-6.287655 1.125295-9.451741 1.989065l-1.186072 0.333352-0.546993 0.16023-1.313151 0.40518-6.700202 2.372144-13.881093 4.956086c-6.790446 2.318734-13.383827 0.804835-19.40259-3.116201-2.954129-1.926446-5.142101-3.981813-6.422101-5.486504a3.683453 3.683453 0 0 1-0.342561-0.471482c-5.31154-8.722417-5.819856-16.409784-3.016748-22.575884 0.948489-2.084835 2.05905-3.547165 2.963338-4.405411 7.341122-6.471827 13.046791-12.855252 17.382216-18.920057a69.447827 69.447827 0 0 0 3.683453-5.676202l0.176806-0.311251c0.338878-0.598561 0.581986-1.055309 0.734849-1.357353l0.097611-0.20259-0.060777 0.151022a36.76823 36.76823 0 0 1 3.186187-6.191885 45.637986 45.637986 0 0 1 4.401727-5.825381l0.598561-0.66118c0.663022-0.718273 1.206331-1.257899 1.576518-1.598619a3.683453 3.683453 0 0 1 0.528576-0.40518c9.735367-6.145842 19.489151-5.736978 28.233669-1.117928z m-23.726964 6.993036l-0.289151 0.180489-0.320461 0.322302a38.339223 38.339223 0 0 0-4.784806 6.061123c-0.858245 1.353669-1.602302 2.729439-2.206388 4.114417l-0.430964 1.031367-0.276259 0.570935c-0.909813 1.823309-2.578417 4.637468-5.127367 8.204892-4.654043 6.514187-10.735424 13.315683-18.408057 20.076662l-0.125238 0.139971c-0.233899 0.290993-0.675914 0.939281-1.101352 1.87672l-0.156547 0.360978c-1.556259 3.758964-1.193439 8.569554 2.401611 14.733813l0.197065 0.329669 0.329669 0.344403a26.237237 26.237237 0 0 0 4.328058 3.54164c4.125468 2.688921 8.324604 3.720288 12.451913 2.493698l0.556202-0.178647 17.81318-6.353957 2.792057-0.983482 0.996374-0.313094c0.733007-0.222849 1.556259-0.460432 2.455022-0.707223 3.451396-0.942964 7.000403-1.720173 10.398388-2.182446l0.830619-0.10682c4.116259-0.50095 7.643165-0.46964 10.512576 0.278101l0.154705 0.044201 0.338877 0.023943c5.978245 0.427281 12.925237 0.239424 18.610648-1.169497l0.294676-0.060777c1.900662-0.35177 4.604317-1.458647 7.009612-3.624518l0.349928-0.324143c3.550849-3.403511 5.32259-8.466417 4.506705-15.901468l-0.077353-0.640921-0.014734-0.079194c-0.261525-1.303942-0.994532-3.204604-2.386877-5.252605-2.204547-3.241439-5.506763-5.926676-10.206849-7.727884l-0.226533-0.09577-1.222906-0.580144-1.825151-0.895079a160.983482 160.983482 0 0 1-11.026417-6.007712 94.626072 94.626072 0 0 1-6.974619-4.567482 50.702734 50.702734 0 0 1-3.98918-3.189871l-0.977957-0.907971a20.793094 20.793094 0 0 0-0.968748-0.81036 25.80259 25.80259 0 0 0-3.919194-2.547108c-6.407367-3.385094-13.201496-3.751597-20.284777 0.478849z" fill="#000000" p-id="3304"></path><path d="M698.935252 432.124317c4.635626 16.684201 9.844029 27.918734 15.62705 33.701755 5.783022 5.783022 17.070964 11.044835 33.860144 15.785439-17.067281 6.182676-28.353381 12.026475-33.860144 17.533237-5.506763 5.506763-10.715165 16.157468-15.62705 31.953957-5.317065-15.743079-10.755683-26.393784-16.317698-31.953957-5.558331-5.560173-16.616058-11.403971-33.169496-17.533237 16.420835-4.829007 27.478561-10.092662 33.171338-15.785439 5.694619-5.694619 11.133237-16.929151 16.315856-33.703597z" fill="#EFD078" p-id="3305"></path><path d="M674.300317 424.51246l-0.755108 2.394245c-3.764489 11.667338-7.285871 18.815079-9.158907 20.686273l-0.276259 0.254159c-2.302158 1.974331-9.851396 5.473612-21.936806 9.028144-23.808 7.002245-24.949871 40.300662-1.677813 48.916259 6.904633 2.556317 12.556892 4.985554 16.899684 7.225093l0.710906 0.370187c3.438504 1.817784 5.573065 3.281957 6.280288 3.991022 0.637237 0.635396 1.930129 2.541583 3.517698 5.650417 2.094043 4.101525 4.320691 9.564086 6.60259 16.321381 7.998619 23.679079 41.628547 23.270216 49.050705-0.594877l0.489899-1.554418c3.593209-11.212432 6.980144-18.054446 8.748202-19.822503 2.123511-2.125353 10.647022-6.538129 24.408403-11.523684 23.555683-8.532719 22.332777-42.249209-1.775425-49.05623l-1.618878-0.465957c-11.934388-3.482705-19.177899-6.902791-21.0141-8.738993-1.891453-1.891453-5.47177-9.613813-9.017094-22.369611-6.889899-24.804374-41.87718-25.305324-49.477985-0.710907zM748.422446 481.611511l-2.147453 0.788259c-15.868317 5.891683-26.439827 11.473957-31.712691 16.744978-5.506763 5.506763-10.715165 16.157468-15.62705 31.953957l-0.72564-2.114302c-5.086849-14.586475-10.284201-24.531799-15.590216-29.839655-5.562014-5.560173-16.617899-11.403971-33.171338-17.533237l2.156661-0.646446c15.234763-4.652201 25.574216-9.698532 31.014677-15.138993 5.694619-5.694619 11.133237-16.929151 16.315856-33.703597l0.620662 2.193496c4.479079 15.479712 9.481209 25.983079 15.006388 31.510101 5.783022 5.783022 17.070964 11.044835 33.860144 15.785439z" fill="#202020" p-id="3306"></path><path d="M345.323741 432.124317c4.635626 16.684201 9.844029 27.918734 15.62705 33.701755 5.783022 5.783022 17.070964 11.044835 33.860144 15.785439-17.067281 6.182676-28.353381 12.026475-33.860144 17.533237-5.506763 5.506763-10.715165 16.157468-15.62705 31.953957-5.317065-15.743079-10.755683-26.393784-16.317698-31.953957-5.558331-5.560173-16.616058-11.403971-33.169496-17.533237 16.420835-4.829007 27.478561-10.092662 33.171338-15.785439 5.694619-5.694619 11.133237-16.929151 16.315856-33.703597z" fill="#EFD078" p-id="3307"></path><path d="M320.688806 424.51246l-0.755108 2.394245c-3.764489 11.667338-7.285871 18.815079-9.158907 20.686273l-0.276259 0.254159c-2.302158 1.974331-9.851396 5.473612-21.936805 9.028144-23.808 7.002245-24.949871 40.300662-1.677813 48.916259 6.904633 2.556317 12.556892 4.985554 16.899683 7.225093l0.710907 0.370187c3.438504 1.817784 5.573065 3.281957 6.280287 3.991022 0.637237 0.635396 1.930129 2.541583 3.517698 5.650417 2.094043 4.101525 4.320691 9.564086 6.60259 16.321381 7.998619 23.679079 41.628547 23.270216 49.050705-0.594877l0.489899-1.554418c3.593209-11.212432 6.980144-18.054446 8.748202-19.822503 2.123511-2.125353 10.647022-6.538129 24.408403-11.523684 23.555683-8.532719 22.332777-42.249209-1.775425-49.05623l-1.618877-0.465957c-11.934388-3.482705-19.177899-6.902791-21.014101-8.738993-1.891453-1.891453-5.47177-9.613813-9.017094-22.369611-6.889899-24.804374-41.87718-25.305324-49.477985-0.710907zM394.810935 481.611511l-2.147453 0.788259c-15.868317 5.891683-26.439827 11.473957-31.712691 16.744978-5.506763 5.506763-10.715165 16.157468-15.62705 31.953957l-0.72564-2.114302c-5.086849-14.586475-10.284201-24.531799-15.590216-29.839655-5.562014-5.560173-16.617899-11.403971-33.171338-17.533237l2.156662-0.646446c15.234763-4.652201 25.574216-9.698532 31.014676-15.138993 5.694619-5.694619 11.133237-16.929151 16.315856-33.703597l0.620662 2.193496c4.479079 15.479712 9.481209 25.983079 15.006388 31.510101 5.783022 5.783022 17.070964 11.044835 33.860144 15.785439z" fill="#202020" p-id="3308"></path></svg>