<?xml version="1.0" standalone="no"?><!DOCTYPE svg PUBLIC "-//W3C//DTD SVG 1.1//EN" "http://www.w3.org/Graphics/SVG/1.1/DTD/svg11.dtd"><svg class="icon" width="200px" height="200.00px" viewBox="0 0 1024 1024" version="1.1" xmlns="http://www.w3.org/2000/svg"><path fill="#ffffff" d="M714.688 714.624h-64V309.312h64v405.312zM499.328 330.048l128 341.376-29.952 11.2-30.016 11.264-40.192-107.2H368.832l-40.192 107.2-29.952-11.264-29.952-11.2 128-341.376 7.744-20.736h87.04l7.808 20.736z m-106.496 192.64h110.336L448 375.488l-55.168 147.2zM640 10.688a32 32 0 0 1 32 32v96H768c64.768 0 117.376 52.48 117.376 117.312v96h95.936a32 32 0 1 1 0 64h-95.936v149.312h95.936a32 32 0 0 1 0 64h-95.936V768A117.44 117.44 0 0 1 768 885.376h-96v95.936a32 32 0 1 1-64 0v-95.936h-192v95.936a32 32 0 1 1-64 0v-95.936H256A117.376 117.376 0 0 1 138.688 768V629.312h-96a32 32 0 0 1 0-64h96V416h-96a32 32 0 0 1 0-64h96V256c0-64.768 52.48-117.312 117.312-117.312h96v-96a32 32 0 0 1 64 0v96h192v-96a32 32 0 0 1 32-32z m-384 192A53.312 53.312 0 0 0 202.688 256v512c0 29.44 23.872 53.376 53.312 53.376h127.424L384 821.312l0.576 0.064H639.36l0.576-0.064 0.576 0.064H768c29.44 0 53.376-23.936 53.376-53.376V597.888l-0.064-0.576 0.064-0.64V384.64L821.312 384l0.064-0.64V256A53.376 53.376 0 0 0 768 202.688H256z" /></svg>