<?xml version="1.0" standalone="no"?><!DOCTYPE svg PUBLIC "-//W3C//DTD SVG 1.1//EN" "http://www.w3.org/Graphics/SVG/1.1/DTD/svg11.dtd"><svg class="icon" width="200px" height="200.00px" viewBox="0 0 1024 1024" version="1.1" xmlns="http://www.w3.org/2000/svg"><path fill="#ffffff" d="M906.624 512A394.688 394.688 0 1 0 117.312 512a394.688 394.688 0 0 0 789.312 0z m64 0A458.688 458.688 0 1 1 53.312 512 458.688 458.688 0 0 1 970.688 512zM427.52 288.512a160 160 0 0 1 241.088 138.176l-0.512 10.88c-4.992 53.76-45.952 90.496-77.76 111.744a332.8 332.8 0 0 1-64.896 33.28l-4.736 1.728-1.344 0.448-0.384 0.192h-0.192l-0.064 0.064a32 32 0 0 1-20.224-60.736l0.768-0.256c0.768-0.256 1.92-0.64 3.456-1.28a268.672 268.672 0 0 0 52.096-26.752c30.08-20.032 49.792-43.648 49.792-69.312A96.192 96.192 0 0 0 524.8 331.84a96 96 0 0 0-106.88 62.72 32 32 0 0 1-60.352-21.184A160 160 0 0 1 427.52 288.512zM512.448 693.312l6.4 0.64a32 32 0 0 1 0 62.72l-6.4 0.64H512a32 32 0 1 1 0-64h0.448z" /></svg>