<?xml version="1.0" standalone="no"?><!DOCTYPE svg PUBLIC "-//W3C//DTD SVG 1.1//EN" "http://www.w3.org/Graphics/SVG/1.1/DTD/svg11.dtd"><svg class="icon" width="200px" height="200.00px" viewBox="0 0 1024 1024" version="1.1" xmlns="http://www.w3.org/2000/svg"><path fill="#ffffff" d="M906.624 512A394.688 394.688 0 1 0 117.312 512a394.688 394.688 0 0 0 789.312 0z m64 0A458.688 458.688 0 1 1 53.312 512 458.688 458.688 0 0 1 970.688 512zM512 565.312c62.144 0 111.296 24.96 144.128 48.832a285.888 285.888 0 0 1 48.064 44.288l2.816 3.392 0.832 1.088 0.256 0.384 0.192 0.128-25.6 19.2-22.528 16.96 48.128-36.096a32 32 0 1 1-51.456 38.08l-1.6-1.984a222.592 222.592 0 0 0-36.672-33.664c-25.856-18.816-62.08-36.608-106.56-36.608-44.48 0-80.768 17.792-106.56 36.608a222.336 222.336 0 0 0-36.608 33.664l-1.664 1.984-0.256 0.256a32 32 0 1 1-51.2-38.4l31.68 23.808-6.08-4.608-25.6-19.2h0.128v-0.128l0.32-0.384 0.768-1.088 2.816-3.392a286.08 286.08 0 0 1 48.064-44.288C400.704 590.272 449.92 565.312 512 565.312zM384.512 336l4.864 0.256a48 48 0 0 1 0 95.488l-4.864 0.256H384a48 48 0 1 1 0-96h0.512zM640.512 336l4.864 0.256a48 48 0 0 1 0 95.488l-4.864 0.256H640a48 48 0 0 1 0-96h0.512z" /></svg>