<?xml version="1.0" standalone="no"?><!DOCTYPE svg PUBLIC "-//W3C//DTD SVG 1.1//EN" "http://www.w3.org/Graphics/SVG/1.1/DTD/svg11.dtd"><svg class="icon" width="200px" height="200.00px" viewBox="0 0 1024 1024" version="1.1" xmlns="http://www.w3.org/2000/svg"><path fill="#ffffff" d="M896 821.312a32 32 0 0 1 0 64H512a32 32 0 1 1 0-64h384zM826.496 213.312a58.624 58.624 0 0 0-99.84-41.344l-527.168 527.104-27.52 110.272 110.272-27.584 527.104-527.04a58.688 58.688 0 0 0 17.152-41.408z m64 0a122.56 122.56 0 0 1-35.84 86.656L321.28 833.28a32 32 0 0 1-14.912 8.32l-170.688 42.752a32 32 0 0 1-38.784-38.848l42.688-170.688 1.28-4.096a32.256 32.256 0 0 1 7.104-10.752l533.312-533.312a122.496 122.496 0 0 1 209.152 86.592z" /></svg>