<?xml version="1.0" standalone="no"?><!DOCTYPE svg PUBLIC "-//W3C//DTD SVG 1.1//EN" "http://www.w3.org/Graphics/SVG/1.1/DTD/svg11.dtd"><svg class="icon" width="200px" height="200.00px" viewBox="0 0 1024 1024" version="1.1" xmlns="http://www.w3.org/2000/svg"><path fill="#ffffff" d="M896 138.688c41.216 0 74.624 33.472 74.624 74.688v148.672l0.064 0.64v448l-0.128 1.088-0.32 6.528A74.688 74.688 0 0 1 896 885.376H128a74.752 74.752 0 0 1-74.688-74.688V213.376c0-41.216 33.472-74.688 74.688-74.688h768z m-202.688 682.624H832l0.576 0.064H896a10.688 10.688 0 0 0 10.624-10.688v-160h-213.312v170.624z m-576-10.624c0 5.888 4.8 10.688 10.688 10.688h63.424L192 821.312h138.688v-170.624H117.312v160z m277.376 10.624h234.624v-170.624H394.688v170.624zM117.312 586.688h213.376V437.312H117.312v149.376z m277.376 0h234.624V437.312H394.688v149.376z m298.624 0h213.312V437.312h-213.312v149.376zM128 202.688a10.688 10.688 0 0 0-10.688 10.688v159.936h789.312V213.376A10.688 10.688 0 0 0 896 202.688H128z" /></svg>