<?xml version="1.0" standalone="no"?><!DOCTYPE svg PUBLIC "-//W3C//DTD SVG 1.1//EN" "http://www.w3.org/Graphics/SVG/1.1/DTD/svg11.dtd"><svg class="icon" width="200px" height="200.00px" viewBox="0 0 1024 1024" version="1.1" xmlns="http://www.w3.org/2000/svg"><path fill="#ffffff" d="M430.336 440.96l-160.96 29.568 13.76 57.984 159.36-29.568-12.16-57.984zM517.12 594.688c-39.296 80.96-74.624 19.84-74.624 19.84l-26.304 16.32s51.84 68.16 101.376 16.384c58.368 51.776 103.04-16.768 103.04-16.768l-24-14.72c0-0.448-41.728 57.6-79.488-21.12z m79.488-95.744l159.808 29.568 13.376-57.984-160.64-29.568-12.544 57.984z m317.248-113.92c-2.56-107.968-100.672-128.704-100.672-128.704s-76.608-0.384-176.064-1.28l72.32-66.944s11.52-13.824-8-29.248c-19.456-15.424-20.736-8.512-27.52-4.48-5.888 4.096-92.672 85.76-107.904 100.352-39.36 0-80.384-0.448-120.192-0.448h14.016s-103.68-98.304-110.464-102.72c-6.784-4.48-7.68-11.008-27.52 4.48-19.456 15.36-8.064 29.184-8.064 29.184l74.112 69.12c-80.448 0-149.824 0.384-182.016 1.6-104.064 28.8-96 129.152-96 129.152s1.28 215.232 0 324.096c11.392 108.8 98.56 126.272 98.56 126.272s34.688 0.832 60.544 0.832c2.56 6.912 4.608 40.96 44.416 40.96 39.36 0 44.416-40.96 44.416-40.96s289.92-1.28 313.984-1.28c1.28 11.84 7.232 43.072 46.976 42.688 39.36-0.832 42.304-45.056 42.304-45.056s13.568-1.28 53.76 0c93.952-16.64 99.456-122.24 99.456-122.24s-1.728-217.28-0.448-325.312z m-80.832 344.448a31.04 31.04 0 0 1-31.296 30.848H230.464a31.04 31.04 0 0 1-31.36-30.848v-363.52c0-17.024 14.016-30.848 31.36-30.848h571.264c17.344 0 31.36 13.824 31.36 30.848v363.52z" /></svg>