<?xml version="1.0" standalone="no"?><!DOCTYPE svg PUBLIC "-//W3C//DTD SVG 1.1//EN" "http://www.w3.org/Graphics/SVG/1.1/DTD/svg11.dtd"><svg class="icon" width="200px" height="200.00px" viewBox="0 0 1024 1024" version="1.1" xmlns="http://www.w3.org/2000/svg"><path fill="#ffffff" d="M454.016 100.48a416.128 416.128 0 0 1 437.632 241.92 416 416 0 1 1-772.032 308.224L149.76 640l30.272-10.688a352.128 352.128 0 0 0 675.2-38.784 352.128 352.128 0 0 0-172.928-386.24 352.064 352.064 0 0 0-419.008 58.944l-0.64 0.704-139.136 130.752h175.232a32 32 0 0 1 0 64h-256l-0.768-0.128c-0.896 0-1.792-0.128-2.688-0.256-1.152-0.128-2.24-0.192-3.328-0.448a31.808 31.808 0 0 1-4.096-1.28l-1.92-0.576-1.984-1.088c-1.28-0.64-2.432-1.28-3.52-2.048l-1.024-0.768a32 32 0 0 1-3.84-3.328l-0.128-0.192-0.896-1.152a31.936 31.936 0 0 1-2.816-3.648L14.592 441.6c-0.64-1.024-1.216-2.112-1.664-3.264a31.808 31.808 0 0 1-1.024-3.392 32 32 0 0 1-1.088-6.656l-0.128-1.664v-256a32 32 0 0 1 64 0V352.64l144.064-135.296a416 416 0 0 1 235.264-116.928zM139.136 609.792a32 32 0 0 1 40.832 19.52l-60.352 21.312a32 32 0 0 1 19.52-40.832z" /></svg>