<?xml version="1.0" standalone="no"?><!DOCTYPE svg PUBLIC "-//W3C//DTD SVG 1.1//EN" "http://www.w3.org/Graphics/SVG/1.1/DTD/svg11.dtd"><svg class="icon" width="200px" height="200.00px" viewBox="0 0 1024 1024" version="1.1" xmlns="http://www.w3.org/2000/svg"><path fill="#ffffff" d="M906.624 213.376A10.688 10.688 0 0 0 896 202.688H128a10.688 10.688 0 0 0-10.688 10.688v597.312c0 5.888 4.8 10.688 10.688 10.688h768a10.688 10.688 0 0 0 10.624-10.688V213.376z m64 597.312c0 41.216-33.344 74.688-74.624 74.688H128a74.688 74.688 0 0 1-74.688-74.688V213.376c0-41.28 33.472-74.688 74.688-74.688h768c41.28 0 74.624 33.408 74.624 74.688v597.312zM231.68 363.2a32 32 0 0 1 39.808-7.168l5.312 3.648 149.376 128a32 32 0 0 1 0 48.64l-149.376 128a32 32 0 0 1-41.6-48.64L356.16 512l-120.96-103.68-4.48-4.672a32 32 0 0 1 0.96-40.448zM768 650.688a32 32 0 1 1 0 64H490.688a32 32 0 0 1 0-64H768z" /></svg>