<?xml version="1.0" standalone="no"?><!DOCTYPE svg PUBLIC "-//W3C//DTD SVG 1.1//EN" "http://www.w3.org/Graphics/SVG/1.1/DTD/svg11.dtd"><svg class="icon" width="200px" height="200.00px" viewBox="0 0 1024 1024" version="1.1" xmlns="http://www.w3.org/2000/svg"><path fill="#ffffff" d="M554.688 53.312a32 32 0 0 1 22.656 9.344l298.624 298.688 0.768 0.896a32.576 32.576 0 0 1 5.44 8.192l0.896 1.792a31.68 31.68 0 0 1 1.28 4.288c0.128 0.512 0.32 0.96 0.384 1.472a32 32 0 0 1 0.64 6.016v469.312A117.44 117.44 0 0 1 768 970.624H256a117.312 117.312 0 0 1-117.312-117.312V170.624A117.376 117.376 0 0 1 256 53.312h298.688zM256 117.312a53.376 53.376 0 0 0-53.312 53.312v682.688a53.312 53.312 0 0 0 53.312 53.312h512a53.44 53.44 0 0 0 53.376-53.312V416H554.688a32 32 0 0 1-32-32V117.312H256zM586.688 352h189.44l-189.44-189.44V352z" /></svg>