<?xml version="1.0" standalone="no"?><!DOCTYPE svg PUBLIC "-//W3C//DTD SVG 1.1//EN" "http://www.w3.org/Graphics/SVG/1.1/DTD/svg11.dtd"><svg class="icon" width="200px" height="200.00px" viewBox="0 0 1024 1024" version="1.1" xmlns="http://www.w3.org/2000/svg"><path fill="#ffffff" d="M640 53.312c41.216 0 74.624 33.472 74.624 74.688v10.688H768A117.504 117.504 0 0 1 885.376 256v597.376A117.44 117.44 0 0 1 768 970.688H256a117.376 117.376 0 0 1-117.312-117.312V256A117.312 117.312 0 0 1 256 138.688h53.312V128c0-41.216 33.472-74.688 74.688-74.688h256zM256 202.688A53.312 53.312 0 0 0 202.688 256v597.376a53.376 53.376 0 0 0 53.312 53.312h512a53.44 53.44 0 0 0 53.376-53.312V256A53.44 53.44 0 0 0 768 202.688h-53.376v10.624c0 41.216-33.408 74.688-74.624 74.688H384a74.688 74.688 0 0 1-74.688-74.688v-10.624H256z m128-85.376A10.752 10.752 0 0 0 373.312 128v41.92l0.064 0.768-0.064 0.64v41.984c0 5.888 4.8 10.688 10.688 10.688h256a10.688 10.688 0 0 0 10.624-10.688V128A10.688 10.688 0 0 0 640 117.312H384z" /></svg>