<?xml version="1.0" standalone="no"?><!DOCTYPE svg PUBLIC "-//W3C//DTD SVG 1.1//EN" "http://www.w3.org/Graphics/SVG/1.1/DTD/svg11.dtd"><svg class="icon" width="200px" height="200.00px" viewBox="0 0 1024 1024" version="1.1" xmlns="http://www.w3.org/2000/svg"><path fill="#ffffff" d="M778.624 213.312a53.312 53.312 0 0 0-53.312-53.312H298.624a53.312 53.312 0 0 0-53.312 53.312v620.416L493.44 656.64a32 32 0 0 1 37.184 0l248.064 177.088V213.312z m64 682.688a32 32 0 0 1-50.56 26.048L512 721.92l-280 200.128a32 32 0 0 1-50.56-26.048V213.312A117.312 117.312 0 0 1 298.56 96h426.688a117.312 117.312 0 0 1 117.312 117.312V896z" /></svg>