<?xml version="1.0" standalone="no"?><!DOCTYPE svg PUBLIC "-//W3C//DTD SVG 1.1//EN" "http://www.w3.org/Graphics/SVG/1.1/DTD/svg11.dtd"><svg class="icon" width="200px" height="200.00px" viewBox="0 0 1024 1024" version="1.1" xmlns="http://www.w3.org/2000/svg"><path fill="#ffffff" d="M53.312 853.376V256a117.312 117.312 0 0 1 117.312-117.312h298.688a32 32 0 1 1 0 64H170.624A53.312 53.312 0 0 0 117.312 256v597.376a53.312 53.312 0 0 0 53.312 53.312H768a53.312 53.312 0 0 0 53.312-53.312V554.688a32 32 0 0 1 64 0v298.688A117.312 117.312 0 0 1 768 970.688H170.624a117.312 117.312 0 0 1-117.312-117.312zM911.808 170.688a58.496 58.496 0 0 0-99.84-41.408L412.8 528.384 385.28 638.72l110.336-27.52 399.104-399.104a58.496 58.496 0 0 0 17.088-41.344z m64 0c0 32.448-12.864 63.616-35.84 86.592l-405.312 405.376a32 32 0 0 1-14.912 8.32l-170.688 42.752a32 32 0 0 1-38.784-38.848l42.688-170.688 1.28-4.096a32.192 32.192 0 0 1 7.168-10.752l405.312-405.312a122.496 122.496 0 0 1 209.088 86.656z" /></svg>