<?xml version="1.0" standalone="no"?><!DOCTYPE svg PUBLIC "-//W3C//DTD SVG 1.1//EN" "http://www.w3.org/Graphics/SVG/1.1/DTD/svg11.dtd"><svg class="icon" width="200px" height="200.00px" viewBox="0 0 1024 1024" version="1.1" xmlns="http://www.w3.org/2000/svg"><path fill="#ffffff" d="M906.688 469.312a53.376 53.376 0 0 0-53.376-53.312h-384a53.312 53.312 0 0 0-53.312 53.312v384c0 29.44 23.872 53.376 53.312 53.376h384c29.44 0 53.376-23.936 53.376-53.376v-384z m64 384a117.376 117.376 0 0 1-117.376 117.376h-384A117.376 117.376 0 0 1 352 853.312v-384c0-64.768 52.48-117.312 117.312-117.312h384c64.768 0 117.376 52.48 117.376 117.312v384zM608 213.312v-42.688a53.376 53.376 0 0 0-53.376-53.312h-384a53.312 53.312 0 0 0-53.312 53.312v384a53.44 53.44 0 0 0 53.312 53.376h42.688l6.4 0.64a32 32 0 0 1 0 62.72l-6.4 0.64h-42.688A117.376 117.376 0 0 1 53.312 554.624v-384A117.312 117.312 0 0 1 170.624 53.312h384A117.44 117.44 0 0 1 672 170.624v42.688a32 32 0 0 1-64 0z" /></svg>