<?xml version="1.0" standalone="no"?><!DOCTYPE svg PUBLIC "-//W3C//DTD SVG 1.1//EN" "http://www.w3.org/Graphics/SVG/1.1/DTD/svg11.dtd"><svg class="icon" width="200px" height="200.00px" viewBox="0 0 1024 1024" version="1.1" xmlns="http://www.w3.org/2000/svg"><path fill="#ffffff" d="M660.032 233.408a32 32 0 0 1 45.248 0l256 256a32 32 0 0 1 0 45.248l-256 256a32 32 0 0 1-45.248-45.248L893.376 512l-233.344-233.344a32 32 0 0 1 0-45.248zM318.72 233.408a32 32 0 1 1 45.248 45.248L130.56 512l233.408 233.408 4.096 4.992a32 32 0 0 1-44.352 44.352l-4.992-4.096-256-256a32 32 0 0 1 0-45.248l256-256z" /></svg>