<?xml version="1.0" standalone="no"?><!DOCTYPE svg PUBLIC "-//W3C//DTD SVG 1.1//EN" "http://www.w3.org/Graphics/SVG/1.1/DTD/svg11.dtd"><svg class="icon" width="200px" height="200.00px" viewBox="0 0 1024 1024" version="1.1" xmlns="http://www.w3.org/2000/svg"><path fill="#ffffff" d="M916.032 148.032a32 32 0 0 1 45.248 45.248L534.656 619.968a32 32 0 0 1-45.312 0l-128-128-4.096-5.056a32 32 0 0 1 44.352-44.288l5.056 4.096L512 552.128l404.032-404.096zM96 810.688V213.312A117.312 117.312 0 0 1 213.312 96h469.376l6.4 0.64a32 32 0 0 1 0 62.72l-6.4 0.64H213.312a53.312 53.312 0 0 0-53.312 53.312v597.376a53.312 53.312 0 0 0 53.312 53.312h597.376a53.312 53.312 0 0 0 53.312-53.312V512a32 32 0 0 1 64 0v298.688a117.312 117.312 0 0 1-117.312 117.312H213.312A117.312 117.312 0 0 1 96 810.688z" /></svg>