<?xml version="1.0" standalone="no"?><!DOCTYPE svg PUBLIC "-//W3C//DTD SVG 1.1//EN" "http://www.w3.org/Graphics/SVG/1.1/DTD/svg11.dtd"><svg class="icon" width="200px" height="200.00px" viewBox="0 0 1024 1024" version="1.1" xmlns="http://www.w3.org/2000/svg"><path fill="#ffffff" d="M513.024 480a32.128 32.128 0 0 1 6.464 0.96c0.96 0.192 1.92 0.512 2.816 0.832 0.96 0.32 1.92 0.64 2.752 1.024 0.832 0.32 1.536 0.832 2.304 1.28a32.128 32.128 0 0 1 7.232 5.312l170.688 170.624 4.096 5.056a32 32 0 0 1-44.288 44.288l-5.12-4.032L544 589.248V896a32 32 0 0 1-64 0V589.184l-116.032 116.16a32 32 0 0 1-45.248-45.312l170.688-170.688 4.992-4.096A31.808 31.808 0 0 1 499.2 482.56l1.408-0.512a31.936 31.936 0 0 1 4.48-1.28l1.6-0.256a32 32 0 0 1 4.416-0.448L512 480h1.024zM369.984 96.384a373.504 373.504 0 0 1 298.24 131.328A373.504 373.504 0 0 1 738.048 352H768l20.416 0.896a245.44 245.44 0 0 1 96.896 459.84 32 32 0 0 1-30.72-56.192 181.44 181.44 0 0 0 24.64-302.272A181.376 181.376 0 0 0 768 416h-53.76a32 32 0 0 1-30.976-24 309.44 309.44 0 0 0-603.904 22.272 309.504 309.504 0 0 0 61.44 246.592l11.2 13.44 3.776 5.248a32 32 0 0 1-47.04 41.536l-4.736-4.416-13.44-16.256a373.44 373.44 0 0 1 118.08-560.64 373.376 373.376 0 0 1 161.344-43.392z" /></svg>