<?xml version="1.0" standalone="no"?><!DOCTYPE svg PUBLIC "-//W3C//DTD SVG 1.1//EN" "http://www.w3.org/Graphics/SVG/1.1/DTD/svg11.dtd"><svg class="icon" width="200px" height="200.00px" viewBox="0 0 1024 1024" version="1.1" xmlns="http://www.w3.org/2000/svg"><path fill="#ffffff" d="M768 565.312a32 32 0 0 1 0 64H256a32 32 0 0 1 0-64h512zM305.152 373.952a32.064 32.064 0 0 1 0 62.72l-6.464 0.64H256a32 32 0 0 1 0-64h42.688l6.4 0.64zM497.152 373.952a32.064 32.064 0 0 1 0 62.72l-6.464 0.64H448a32 32 0 0 1 0-64h42.688l6.4 0.64zM768 373.312a32 32 0 0 1 0 64H618.688a32 32 0 0 1 0-64H768zM896 117.312c41.216 0 74.624 33.472 74.624 74.688v597.312c0 41.216-33.408 74.688-74.624 74.688H128a74.752 74.752 0 0 1-74.688-74.688V192c0-41.216 33.472-74.688 74.688-74.688h768z m-768 64A10.752 10.752 0 0 0 117.312 192v597.312c0 5.888 4.8 10.688 10.688 10.688h768a10.688 10.688 0 0 0 10.624-10.688V192A10.688 10.688 0 0 0 896 181.312H128z" /></svg>