<?xml version="1.0" standalone="no"?><!DOCTYPE svg PUBLIC "-//W3C//DTD SVG 1.1//EN" "http://www.w3.org/Graphics/SVG/1.1/DTD/svg11.dtd"><svg class="icon" width="200px" height="200.00px" viewBox="0 0 1024 1024" version="1.1" xmlns="http://www.w3.org/2000/svg"><path fill="#ffffff" d="M845.632 53.312c69.056 0 124.992 56 124.992 124.992v667.328a124.992 124.992 0 0 1-124.992 124.992H178.304a124.992 124.992 0 0 1-124.992-124.992V178.304c0-68.992 56-124.992 124.992-124.992h667.328z m-728.32 792.32c0 33.664 27.328 60.992 60.992 60.992h88.384v-149.312H117.312v88.32z m213.376 60.992h362.624V544H330.688v362.624z m426.624 0h88.32a60.992 60.992 0 0 0 60.992-60.992v-88.32h-149.312v149.312z m-640-213.312h149.376V544H117.312v149.312z m640 0h149.312V544h-149.312v149.312z m-640-213.312h149.376V330.688H117.312V480z m213.376 0h362.624V117.312H330.688V480z m426.624-149.312V480h149.312V330.688h-149.312z m0-64h149.312v-88.32a60.992 60.992 0 0 0-60.992-61.056h-88.32v149.376zM178.304 117.312a61.056 61.056 0 0 0-60.992 60.992v88.384h149.376V117.312h-88.32z" /></svg>