<?xml version="1.0" standalone="no"?><!DOCTYPE svg PUBLIC "-//W3C//DTD SVG 1.1//EN" "http://www.w3.org/Graphics/SVG/1.1/DTD/svg11.dtd"><svg class="icon" width="200px" height="200.00px" viewBox="0 0 1024 1024" version="1.1" xmlns="http://www.w3.org/2000/svg"><path fill="#ffffff" d="M512 53.312c108.48 0 208.064 14.592 281.6 39.104 36.608 12.224 68.608 27.52 92.032 45.952 23.04 18.176 42.368 43.264 42.368 74.944v597.312c0 31.616-19.072 56.768-42.112 75.008-23.36 18.496-55.232 33.728-91.776 45.952-73.408 24.512-172.992 39.04-282.112 39.04-109.12 0-208.704-14.528-282.112-39.04-36.544-12.16-68.416-27.456-91.776-45.952-23.04-18.24-42.112-43.392-42.112-75.008V213.312c0-31.68 19.328-56.768 42.368-74.88 23.424-18.56 55.424-33.792 92.032-46.016C303.936 67.904 403.52 53.312 512 53.312z m352 548.48c-19.968 11.968-43.712 22.4-69.888 31.168-73.408 24.512-172.992 39.04-282.112 39.04-109.12 0-208.704-14.528-282.112-39.04-26.24-8.768-49.92-19.2-69.888-31.168v208.832c0 3.84 2.24 12.416 17.92 24.832 15.296 12.16 39.424 24.448 72.192 35.392 65.28 21.76 157.696 35.776 261.888 35.776 104.192 0 196.608-13.952 261.888-35.776 32.768-10.88 56.96-23.296 72.256-35.392 15.616-12.416 17.856-21.056 17.856-24.832V601.792z m0-298.88c-20.096 12.032-44.032 22.464-70.4 31.296-73.536 24.512-173.12 39.104-281.6 39.104-108.48 0-208.064-14.592-281.6-39.104a359.808 359.808 0 0 1-70.4-31.296V512c0 3.84 2.24 12.416 17.92 24.832 15.232 12.16 39.424 24.384 72.192 35.328 65.28 21.76 157.696 35.84 261.888 35.84 104.192 0 196.608-14.08 261.888-35.84 32.768-10.88 56.96-23.232 72.256-35.328 15.616-12.416 17.856-21.056 17.856-24.832V302.912zM512 117.312c-103.552 0-196.032 14.08-261.44 35.84-32.832 11.008-57.152 23.296-72.576 35.456-15.744 12.416-17.92 21.056-17.984 24.704 0 3.648 2.24 12.224 17.984 24.704 15.424 12.16 39.68 24.448 72.576 35.392 65.408 21.824 157.888 35.904 261.44 35.904 103.552 0 196.032-14.08 261.44-35.84 32.832-11.008 57.152-23.296 72.576-35.456 15.744-12.48 17.984-21.056 17.984-24.704 0-3.648-2.24-12.288-17.984-24.704-15.424-12.16-39.68-24.448-72.576-35.392-65.408-21.824-157.888-35.904-261.44-35.904z" /></svg>