<?xml version="1.0" standalone="no"?><!DOCTYPE svg PUBLIC "-//W3C//DTD SVG 1.1//EN" "http://www.w3.org/Graphics/SVG/1.1/DTD/svg11.dtd"><svg class="icon" width="200px" height="200.00px" viewBox="0 0 1024 1024" version="1.1" xmlns="http://www.w3.org/2000/svg"><path fill="#ffffff" d="M725.056 56.192a245.44 245.44 0 0 1 174.336 415.744L771.008 600.32a245.376 245.376 0 0 1-361.792-16.192l-8.192-10.368-3.264-5.504a32 32 0 0 1 50.176-37.568l4.352 4.736 6.08 7.616a181.312 181.312 0 0 0 202.496 53.696c24.32-9.088 46.464-23.296 64.832-41.664l127.68-127.68a181.376 181.376 0 0 0-256.384-256.384L523.904 243.712l-5.056 4.096a32 32 0 0 1-40.064-49.536l73.408-72.96 0.256-0.256A245.376 245.376 0 0 1 725.12 56.192zM444.032 352.384a245.312 245.312 0 0 1 178.88 97.792 32 32 0 1 1-51.2 38.272 181.44 181.44 0 0 0-273.472-19.52L170.624 596.48l-11.712 13.312a181.44 181.44 0 0 0 140.608 294.016 181.376 181.376 0 0 0 114.176-39.296l13.376-11.648 72.576-72.576a32 32 0 0 1 45.248 45.248l-72.96 72.96-0.448 0.384a245.376 245.376 0 0 1-346.88-346.88L252.992 423.68a245.312 245.312 0 0 1 191.04-71.296z" /></svg>