<?xml version="1.0" standalone="no"?><!DOCTYPE svg PUBLIC "-//W3C//DTD SVG 1.1//EN" "http://www.w3.org/Graphics/SVG/1.1/DTD/svg11.dtd"><svg class="icon" width="200px" height="200.00px" viewBox="0 0 1024 1024" version="1.1" xmlns="http://www.w3.org/2000/svg"><path fill="#ffffff" d="M426.688 437.312a32 32 0 0 1 32 32v256a32 32 0 0 1-64 0v-256a32 32 0 0 1 32-32zM597.312 437.312a32 32 0 0 1 32 32v256a32 32 0 1 1-64 0v-256a32 32 0 0 1 32-32zM597.312 53.312a117.376 117.376 0 0 1 117.312 117.312V224H896a32 32 0 0 1 0 64h-53.376v565.312a117.248 117.248 0 0 1-117.312 117.312H298.624a117.376 117.376 0 0 1-117.312-117.312V288H128a32 32 0 0 1 0-64h181.312v-53.376A117.376 117.376 0 0 1 426.624 53.312h170.688z m-352 800a53.376 53.376 0 0 0 53.312 53.312h426.688a53.312 53.312 0 0 0 53.312-53.312V288H245.312v565.312z m181.312-736a53.376 53.376 0 0 0-53.312 53.312V224h277.312v-53.376a53.376 53.376 0 0 0-53.312-53.312H426.624z" /></svg>