<?xml version="1.0" standalone="no"?><!DOCTYPE svg PUBLIC "-//W3C//DTD SVG 1.1//EN" "http://www.w3.org/Graphics/SVG/1.1/DTD/svg11.dtd"><svg class="icon" width="200px" height="200.00px" viewBox="0 0 1024 1024" version="1.1" xmlns="http://www.w3.org/2000/svg"><path fill="#ffffff" d="M608 512a96 96 0 1 0-192 0 96 96 0 0 0 192 0z m64 0a160 160 0 1 1-320 0 160 160 0 0 1 320 0zM565.376 128a53.376 53.376 0 0 0-106.688 0v7.36a102.592 102.592 0 0 1-62.08 93.76 31.808 31.808 0 0 1-8.96 2.176 102.4 102.4 0 0 1-107.136-22.784l-2.752-2.816a53.312 53.312 0 0 0-79.04 71.616l3.52 3.84 2.816 2.816a102.4 102.4 0 0 1 21.12 111.04h0.128A102.4 102.4 0 0 1 132.608 462.08l-0.768 0.064H128a53.312 53.312 0 0 0 0 106.624h7.36a102.592 102.592 0 0 1 93.632 61.76l2.816 7.168a102.4 102.4 0 0 1-23.36 105.792l-2.752 2.816a53.632 53.632 0 0 0-3.584 71.68l3.584 3.84a53.44 53.44 0 0 0 75.52 0l2.752-2.816a102.4 102.4 0 0 1 111.552-21.056 102.4 102.4 0 0 1 66.56 93.504V896a53.44 53.44 0 0 0 91.008 37.76 53.44 53.44 0 0 0 15.616-37.76v-7.424a102.464 102.464 0 0 1 61.76-93.504 102.4 102.4 0 0 1 107.328 15.296l5.632 5.12 2.816 2.88a53.824 53.824 0 0 0 58.176 11.52 53.376 53.376 0 0 0 17.28-87.04l-2.752-2.816a102.464 102.464 0 0 1-20.672-112.64l3.264-6.72a102.4 102.4 0 0 1 90.496-55.296H896a53.44 53.44 0 0 0 0-106.688h-7.424a102.4 102.4 0 0 1-93.632-62.08 31.872 31.872 0 0 1-2.304-9.152 102.272 102.272 0 0 1 22.912-106.88l2.816-2.816 3.456-3.904a53.12 53.12 0 0 0-3.456-71.552l-0.064-0.064a53.44 53.44 0 0 0-75.456 0l-2.816 2.816a102.528 102.528 0 0 1-112.96 20.48 102.464 102.464 0 0 1-61.696-93.568V128z m64 3.712l0.384 5.568a38.528 38.528 0 0 0 22.848 29.568l0.32 0.128a38.464 38.464 0 0 0 42.368-7.68l2.304-2.304a117.312 117.312 0 0 1 191.424 127.936 117.44 117.44 0 0 1-25.408 38.144l-0.064-0.064-2.24 2.304-3.712 4.352a38.336 38.336 0 0 0-3.968 38.016 32.192 32.192 0 0 1 2.112 7.616 38.4 38.4 0 0 0 33.088 19.392H896a117.376 117.376 0 0 1 0 234.688h-3.712l-5.568 0.448a38.4 38.4 0 0 0-29.568 22.784l-0.128 0.32a38.464 38.464 0 0 0 7.68 42.368l2.304 2.304a117.504 117.504 0 0 1 25.472 128 117.248 117.248 0 0 1-25.536 37.952h0.128a117.44 117.44 0 0 1-166.08 0l-2.304-2.24-4.416-3.712a38.528 38.528 0 0 0-37.952-3.968l-0.256 0.128a38.592 38.592 0 0 0-23.36 35.072V896a117.376 117.376 0 0 1-200.32 83.008A117.376 117.376 0 0 1 398.08 896v-3.072l-0.512-5.76a38.4 38.4 0 0 0-24.576-29.376l-1.92-0.832a38.4 38.4 0 0 0-42.368 7.68l-2.304 2.368a117.376 117.376 0 1 1-165.952-166.016l2.304-2.304a38.4 38.4 0 0 0 7.68-42.304l-0.128-0.32a38.592 38.592 0 0 0-35.2-23.36H128A117.312 117.312 0 0 1 128 398.08h3.072a38.4 38.4 0 0 0 35.2-25.088l0.704-1.92a38.528 38.528 0 0 0-3.968-37.952l-3.712-4.416-2.304-2.304a117.568 117.568 0 0 1 0-165.952 117.312 117.312 0 0 1 166.08 0l2.24 2.304 4.352 3.648a38.4 38.4 0 0 0 38.016 4.032l6.272-2.048 1.472-0.192a38.4 38.4 0 0 0 19.2-32.96V128a117.312 117.312 0 0 1 234.752 0v3.712z" /></svg>