<?xml version="1.0" standalone="no"?><!DOCTYPE svg PUBLIC "-//W3C//DTD SVG 1.1//EN" "http://www.w3.org/Graphics/SVG/1.1/DTD/svg11.dtd"><svg class="icon" width="200px" height="200.00px" viewBox="0 0 1024 1024" version="1.1" xmlns="http://www.w3.org/2000/svg"><path fill="#ffffff" d="M512 53.312a32 32 0 0 1 28.736 17.856l124.352 251.968 278.208 40.704a32 32 0 0 1 17.728 54.592L759.68 614.4l47.552 277.056a32 32 0 0 1-46.464 33.664l-248.832-130.752-248.704 130.752a32 32 0 0 1-46.464-33.664l47.488-276.992L63.04 418.432a32 32 0 0 1 17.664-54.592l278.208-40.704 124.416-251.968 2.24-3.84A32 32 0 0 1 512 53.248zM408.832 366.592A32 32 0 0 1 384.768 384l-230.656 33.728 166.912 162.56a32 32 0 0 1 9.216 28.352l-39.488 229.568 206.336-108.416a32.064 32.064 0 0 1 29.824 0l206.208 108.416-39.36-229.568a32 32 0 0 1 9.28-28.288l166.784-162.624L639.232 384a32 32 0 0 1-24.064-17.472L511.936 157.568 408.832 366.592z" /></svg>