<?xml version="1.0" standalone="no"?><!DOCTYPE svg PUBLIC "-//W3C//DTD SVG 1.1//EN" "http://www.w3.org/Graphics/SVG/1.1/DTD/svg11.dtd"><svg class="icon" width="200px" height="200.00px" viewBox="0 0 1024 1024" version="1.1" xmlns="http://www.w3.org/2000/svg"><path fill="#ffffff" d="M298.688 565.312a32 32 0 0 1 0 64H123.456l139.136 130.752 0.704 0.64a352.064 352.064 0 0 0 580.864-131.328l2.688-5.888a32 32 0 0 1 57.6 27.2l-9.6 24.512a416.064 416.064 0 0 1-676.864 130.816l-143.296-134.72v182.016a32 32 0 0 1-64 0v-256l0.064-0.832a32 32 0 0 1 0.448-4.352c0.064-0.576 0-1.088 0.192-1.6a32 32 0 0 1 4.608-10.944c0.384-0.64 0.896-1.088 1.28-1.664a32.192 32.192 0 0 1 2.112-2.496l0.256-0.256a32.064 32.064 0 0 1 2.304-2.112c0.704-0.64 1.408-1.28 2.176-1.792l2.24-1.408 1.92-1.088 1.92-0.896 1.6-0.576a31.552 31.552 0 0 1 8.768-1.792l2.112-0.192h256zM420.032 106.368a416.064 416.064 0 0 1 385.216 110.976l144.064 135.36V170.688a32 32 0 0 1 64 0v256l-0.128 0.768a32.448 32.448 0 0 1-0.448 4.352c-0.064 0.512 0 1.088-0.192 1.6a31.744 31.744 0 0 1-7.872 15.232c-0.192 0.192-0.448 0.256-0.64 0.512l-1.344 1.152a31.808 31.808 0 0 1-3.392 2.752l-1.408 0.832c-1.28 0.768-2.56 1.6-4.032 2.176l-1.344 0.448a31.744 31.744 0 0 1-4.48 1.344c-1.024 0.256-2.112 0.256-3.2 0.384-0.896 0.128-1.92 0.32-2.816 0.32l-0.704 0.128h-256a32 32 0 0 1 0-64h175.232l-139.072-130.688-0.704-0.64a352.256 352.256 0 0 0-482.816-14.336 352.128 352.128 0 0 0-97.984 145.664L149.76 384l-30.08-10.624a416.128 416.128 0 0 1 300.288-267.008zM179.968 394.688a32 32 0 0 1-60.352-21.312l60.352 21.312z" /></svg>