<?xml version="1.0" standalone="no"?><!DOCTYPE svg PUBLIC "-//W3C//DTD SVG 1.1//EN" "http://www.w3.org/Graphics/SVG/1.1/DTD/svg11.dtd"><svg class="icon" width="200px" height="200.00px" viewBox="0 0 1024 1024" version="1.1" xmlns="http://www.w3.org/2000/svg"><path fill="#ffffff" d="M263.04 651.328a32.064 32.064 0 0 1 0 62.72l-6.464 0.64H256a32 32 0 0 1 0-64h0.576l6.4 0.64zM433.664 651.328a32.064 32.064 0 0 1 0 62.72l-6.4 0.64h-0.576a32 32 0 0 1 0-64h0.576l6.4 0.64zM723.2 139.008a117.376 117.376 0 0 1 96.832 64.768l147.2 293.888 0.256 0.768a32 32 0 0 1 1.664 4.288c0.192 0.832 0.512 1.6 0.64 2.432a32 32 0 0 1 0.832 6.848v256a117.504 117.504 0 0 1-117.312 117.376H170.624A117.44 117.44 0 0 1 53.312 768V512a32 32 0 0 1 0.832-6.848v-0.448l0.704-1.92c0.448-1.408 0.832-2.752 1.408-4.032l0.448-1.088 147.2-293.888a117.504 117.504 0 0 1 104.96-65.088h406.208l8.192 0.32zM117.376 768a53.44 53.44 0 0 0 53.312 53.376h682.688a53.44 53.44 0 0 0 53.312-53.376V544H117.312V768z m191.552-565.312a53.44 53.44 0 0 0-47.68 29.632L137.088 480h749.632L762.88 232.32a53.632 53.632 0 0 0-40.32-29.12l-7.424-0.512H308.864z" /></svg>