<?xml version="1.0" standalone="no"?><!DOCTYPE svg PUBLIC "-//W3C//DTD SVG 1.1//EN" "http://www.w3.org/Graphics/SVG/1.1/DTD/svg11.dtd"><svg class="icon" width="200px" height="200.00px" viewBox="0 0 1024 1024" version="1.1" xmlns="http://www.w3.org/2000/svg"><path fill="#ffffff" d="M469.312 96a373.376 373.376 0 0 1 285.632 613.696l163.712 163.648 4.032 5.056a32 32 0 0 1-44.288 44.288l-5.056-4.032-163.648-163.712A373.376 373.376 0 1 1 469.312 96z m0 64a309.312 309.312 0 1 0 216.32 530.304c0.64-0.832 1.28-1.728 2.112-2.56 0.768-0.768 1.728-1.408 2.56-2.112a308.224 308.224 0 0 0 88.384-216.32A309.376 309.376 0 0 0 469.312 160z" /></svg>