<?xml version="1.0" standalone="no"?><!DOCTYPE svg PUBLIC "-//W3C//DTD SVG 1.1//EN" "http://www.w3.org/Graphics/SVG/1.1/DTD/svg11.dtd"><svg class="icon" width="200px" height="200.00px" viewBox="0 0 1024 1024" version="1.1" xmlns="http://www.w3.org/2000/svg"><path fill="#ffffff" d="M387.968 96.256a32.064 32.064 0 0 1 22.656 14.016L486.464 224h366.848a117.312 117.312 0 0 1 117.312 117.312v469.376a117.312 117.312 0 0 1-117.312 117.312H170.624a117.376 117.376 0 0 1-117.312-117.312V213.312A117.376 117.376 0 0 1 170.624 96H384l3.968 0.256zM170.624 160a53.376 53.376 0 0 0-53.312 53.312v597.376a53.376 53.376 0 0 0 53.312 53.312h682.688a53.376 53.376 0 0 0 53.312-53.312V341.312a53.312 53.312 0 0 0-53.312-53.312h-384a32 32 0 0 1-26.624-14.272L366.848 160H170.624z" /></svg>