<?xml version="1.0" standalone="no"?><!DOCTYPE svg PUBLIC "-//W3C//DTD SVG 1.1//EN" "http://www.w3.org/Graphics/SVG/1.1/DTD/svg11.dtd"><svg class="icon" width="200px" height="200.00px" viewBox="0 0 1024 1024" version="1.1" xmlns="http://www.w3.org/2000/svg"><path fill="#ffffff" d="M512 416a32 32 0 0 1 32 32v96H640a32 32 0 0 1 0 64H544V704a32 32 0 0 1-64 0V608H384a32 32 0 0 1 0-64h96V448a32 32 0 0 1 32-32zM412.352 96.768a32.128 32.128 0 0 1 17.6 10.752L527.04 224h347.648c41.216 0 74.688 33.472 74.688 74.688v554.624c0 41.216-33.472 74.688-74.688 74.688H149.376a74.688 74.688 0 0 1-74.688-74.688V170.688c0-41.216 33.472-74.688 74.688-74.688h256l7.04 0.768zM149.376 160a10.688 10.688 0 0 0-10.688 10.688v682.624c0 5.888 4.8 10.688 10.688 10.688h725.312a10.688 10.688 0 0 0 10.688-10.688V298.688a10.752 10.752 0 0 0-10.688-10.688H512a32 32 0 0 1-24.576-11.52L390.4 160H149.376z" /></svg>