<?xml version="1.0" standalone="no"?><!DOCTYPE svg PUBLIC "-//W3C//DTD SVG 1.1//EN" "http://www.w3.org/Graphics/SVG/1.1/DTD/svg11.dtd"><svg class="icon" width="200px" height="200.00px" viewBox="0 0 1024 1024" version="1.1" xmlns="http://www.w3.org/2000/svg"><path fill="#ffffff" d="M517.376 634.88a48 48 0 0 1 0 95.552l-4.864 0.256H512a48 48 0 0 1 0-96h0.512l4.864 0.256zM512 309.312a32 32 0 0 1 32 32V512a32 32 0 0 1-64 0V341.312a32 32 0 0 1 32-32zM512 53.312a458.688 458.688 0 1 1-0.128 917.376A458.688 458.688 0 0 1 512 53.312z m0 64a394.688 394.688 0 1 0 0 789.248A394.688 394.688 0 0 0 512 117.312z" /></svg>