<?xml version="1.0" standalone="no"?><!DOCTYPE svg PUBLIC "-//W3C//DTD SVG 1.1//EN" "http://www.w3.org/Graphics/SVG/1.1/DTD/svg11.dtd"><svg class="icon" width="200px" height="200.00px" viewBox="0 0 1024 1024" version="1.1" xmlns="http://www.w3.org/2000/svg"><path fill="#ffffff" d="M217.6 260.672a32 32 0 0 1 45.248 45.248 352.128 352.128 0 0 0 53.376 541.568 352.064 352.064 0 0 0 453.568-532.16l-9.088-9.408-4.096-4.992a32.064 32.064 0 0 1 44.352-44.352l4.992 4.096 10.688 11.136a415.872 415.872 0 1 1-599.04-11.136zM512 53.312a32 32 0 0 1 32 32V512a32 32 0 0 1-64 0V85.312a32 32 0 0 1 32-32z" /></svg>