<?xml version="1.0" standalone="no"?><!DOCTYPE svg PUBLIC "-//W3C//DTD SVG 1.1//EN" "http://www.w3.org/Graphics/SVG/1.1/DTD/svg11.dtd"><svg class="icon" width="200px" height="200.00px" viewBox="0 0 1024 1024" version="1.1" xmlns="http://www.w3.org/2000/svg"><path fill="#ffffff" d="M682.624 693.312a32 32 0 0 1 0 64H341.312a32 32 0 0 1 0-64h341.312zM682.624 522.688a32 32 0 1 1 0 64H341.312a32 32 0 0 1 0-64h341.312zM426.624 352a32 32 0 0 1 0 64H341.312a32 32 0 0 1 0-64h85.312zM603.648 53.952a32.128 32.128 0 0 1 10.56 4.288l1.536 0.96a31.808 31.808 0 0 1 4.224 3.456l256 256a32.064 32.064 0 0 1 9.408 22.656v512A117.44 117.44 0 0 1 768 970.624H256a117.312 117.312 0 0 1-117.312-117.312V170.624A117.376 117.376 0 0 1 256 53.312h341.376l6.272 0.64zM256 117.312a53.376 53.376 0 0 0-53.312 53.312v682.688a53.312 53.312 0 0 0 53.312 53.312h512a53.44 53.44 0 0 0 53.376-53.312v-480H597.312a32 32 0 0 1-32-32v-224H256z m373.312 192h146.816L629.312 162.496v146.816z" /></svg>