<?xml version="1.0" standalone="no"?><!DOCTYPE svg PUBLIC "-//W3C//DTD SVG 1.1//EN" "http://www.w3.org/Graphics/SVG/1.1/DTD/svg11.dtd"><svg class="icon" width="200px" height="200.00px" viewBox="0 0 1024 1024" version="1.1" xmlns="http://www.w3.org/2000/svg"><path fill="#ffffff" d="M512 608a202.752 202.752 0 0 1 202.688 202.688V896a32 32 0 0 1-64 0v-85.312A138.752 138.752 0 0 0 512 672H213.376a138.688 138.688 0 0 0-138.688 138.688V896a32 32 0 0 1-64 0v-85.312A202.688 202.688 0 0 1 213.376 608H512zM853.312 309.312a32 32 0 0 1 32 32v96h96a32 32 0 0 1 0 64h-96v96a32 32 0 1 1-64 0v-96h-96a32 32 0 0 1 0-64h96v-96a32 32 0 0 1 32-32zM362.688 96a202.688 202.688 0 1 1-0.064 405.312A202.688 202.688 0 0 1 362.688 96z m0 64a138.688 138.688 0 1 0 0 277.376 138.688 138.688 0 0 0 0-277.376z" /></svg>