<?xml version="1.0" standalone="no"?><!DOCTYPE svg PUBLIC "-//W3C//DTD SVG 1.1//EN" "http://www.w3.org/Graphics/SVG/1.1/DTD/svg11.dtd"><svg class="icon" width="200px" height="200.00px" viewBox="0 0 1024 1024" version="1.1" xmlns="http://www.w3.org/2000/svg"><path fill="#ffffff" d="M853.312 138.688c63.936 0 116.096 51.648 117.184 115.328l0.128 1.984v512c0 64.64-52.736 117.376-117.312 117.376H170.624A117.632 117.632 0 0 1 53.312 768V256c0-64.64 52.736-117.312 117.312-117.312h682.688z m-323.008 442.24a32 32 0 0 1-36.672 0L117.312 317.44V768c0 29.248 24.064 53.376 53.312 53.376h682.688a53.632 53.632 0 0 0 53.312-53.376V317.44l-376.32 263.424z m-359.68-378.24a53.696 53.696 0 0 0-51.136 38.208L512 515.584l392.512-274.688a53.632 53.632 0 0 0-51.136-38.208H170.624z" /></svg>