<?xml version="1.0" standalone="no"?><!DOCTYPE svg PUBLIC "-//W3C//DTD SVG 1.1//EN" "http://www.w3.org/Graphics/SVG/1.1/DTD/svg11.dtd"><svg class="icon" width="200px" height="200.00px" viewBox="0 0 1024 1024" version="1.1" xmlns="http://www.w3.org/2000/svg"><path fill="#ffffff" d="M496.896 57.152a32 32 0 0 1 34.752 2.944l384 298.688A32 32 0 0 1 928 384v469.312a117.312 117.312 0 0 1-117.312 117.312h-170.112l-0.576 0.064H213.312A117.312 117.312 0 0 1 96 853.248V384a32 32 0 0 1 12.352-25.216l384-298.688 4.48-2.944zM160 399.552v453.76a53.312 53.312 0 0 0 53.312 53.312H352V512a32 32 0 0 1 32-32h256a32 32 0 0 1 32 32v394.624h138.688a53.312 53.312 0 0 0 53.312-53.312v-453.76L512 125.824 160 399.552z m256 507.072h192V544h-192v362.624z" /></svg>